<svg width="211" height="38" viewBox="0 0 211 38" fill="none" xmlns="http://www.w3.org/2000/svg">
<g id="Frame" clip-path="url(#clip0_2_2)">
<path id="Vector" d="M78.3011 10.8503H72.9991V1.18836C73.0042 0.948969 72.9636 0.774907 72.8824 0.676988C72.7961 0.579032 72.6436 0.53007 72.4202 0.535514H71.4145C71.1911 0.53007 71.0288 0.579032 70.9373 0.676988C70.8459 0.774907 70.8002 0.948969 70.8053 1.18836V23.0582C70.8002 23.2976 70.8459 23.4717 70.9373 23.5696C71.0288 23.6675 71.1911 23.7165 71.4145 23.711H72.4202C72.6436 23.7165 72.7961 23.6675 72.8824 23.5696C72.9636 23.4717 73.0042 23.2976 72.9991 23.0582V13.0699H78.3011V16.0076C78.3062 17.7213 78.6211 19.1847 79.2559 20.4034C79.8904 21.6165 80.82 22.5468 82.049 23.1888C83.273 23.8362 84.7759 24.1626 86.5587 24.168C88.3209 24.1626 89.8089 23.8362 91.0277 23.1888C92.2465 22.5468 93.1706 21.6165 93.8003 20.4034C94.4351 19.1847 94.75 17.7213 94.7551 16.0076V8.23891C94.75 6.52522 94.4351 5.06182 93.8003 3.84322C93.1706 2.63004 92.2465 1.69973 91.0277 1.05233C89.8089 0.410374 88.3209 0.0839885 86.5587 0.0785446C84.7759 0.0839885 83.273 0.410374 82.049 1.05233C80.82 1.69973 79.8904 2.63004 79.2559 3.84322C78.6211 5.06182 78.3062 6.52522 78.3011 8.23891V10.8503ZM92.5614 16.0076C92.5614 17.2861 92.3277 18.3632 91.8655 19.2554C91.4032 20.1422 90.7278 20.8168 89.8341 21.2792C88.9455 21.7471 87.8535 21.9756 86.5587 21.981C85.2586 21.9756 84.1565 21.7471 83.2627 21.2792C82.3639 20.8168 81.6833 20.1422 81.2211 19.2554C80.7589 18.3632 80.5256 17.2861 80.5256 16.0076V8.23891C80.5256 6.9605 80.7589 5.87787 81.2211 4.99112C81.6833 4.10433 82.3639 3.42973 83.2627 2.96187C84.1565 2.49946 85.2586 2.26554 86.5587 2.26554C87.8535 2.26554 88.9455 2.49946 89.8341 2.96187C90.7278 3.42973 91.4032 4.10433 91.8655 4.99112C92.3277 5.87787 92.5614 6.9605 92.5614 8.23891V16.0076ZM99.4783 0.535514C99.2545 0.53007 99.0921 0.579032 99.0007 0.676988C98.9093 0.774907 98.8636 0.948969 98.8687 1.18836V23.0582C98.8636 23.2976 98.9093 23.4717 99.0007 23.5696C99.0921 23.6675 99.2545 23.7165 99.4783 23.711H100.484C100.707 23.7165 100.859 23.6675 100.946 23.5696C101.027 23.4717 101.068 23.2976 101.063 23.0582V14.9957H107.614C109.041 14.9903 110.27 14.702 111.296 14.1307C112.321 13.5649 113.109 12.7435 113.662 11.6663C114.216 10.5946 114.495 9.29977 114.5 7.78196C114.495 6.26412 114.216 4.9639 113.662 3.8867C113.109 2.80954 112.321 1.98264 111.296 1.40597C110.27 0.829309 109.041 0.540959 107.614 0.535514H99.4783ZM101.063 12.8087V2.75514H107.431C108.421 2.76059 109.274 2.96187 109.985 3.35899C110.696 3.7616 111.25 4.33825 111.631 5.08356C112.017 5.83435 112.21 6.73199 112.215 7.78196C112.21 8.83193 112.017 9.72957 111.631 10.4803C111.25 11.2256 110.696 11.8023 109.985 12.1994C109.274 12.602 108.421 12.8033 107.431 12.8087H101.063ZM132.6 0.535514C132.463 0.535514 132.341 0.562736 132.234 0.611693C132.127 0.666099 132.036 0.747686 131.96 0.861938L123.184 14.5388C122.468 15.6649 121.828 16.742 121.254 17.7648C120.686 18.793 120.183 19.7614 119.741 20.6753H119.65C119.772 19.5492 119.863 18.4014 119.924 17.2262C119.985 16.0566 120.015 14.8652 120.015 13.6575V1.18836C120.02 0.948969 119.98 0.774907 119.898 0.676988C119.812 0.579032 119.66 0.53007 119.436 0.535514H118.431C118.208 0.53007 118.045 0.579032 117.953 0.676988C117.862 0.774907 117.816 0.948969 117.821 1.18836V23.0582C117.816 23.2976 117.862 23.4717 117.953 23.5696C118.045 23.6675 118.208 23.7165 118.431 23.711H119.436C119.573 23.711 119.696 23.6784 119.802 23.6185C119.909 23.5532 120 23.4662 120.076 23.352L129.065 9.34873C129.781 8.17362 130.411 7.10191 130.959 6.13897C131.503 5.17604 131.96 4.32195 132.326 3.5712H132.386C132.249 4.72998 132.153 5.86154 132.087 6.97135C132.021 8.08114 131.99 9.16922 131.99 10.2301V23.0582C131.99 23.2976 132.031 23.4717 132.122 23.5696C132.219 23.6675 132.376 23.7165 132.6 23.711H133.605C133.828 23.7165 133.991 23.6675 134.083 23.5696C134.174 23.4717 134.22 23.2976 134.215 23.0582V1.18836C134.22 0.948969 134.174 0.774907 134.083 0.676988C133.991 0.579032 133.828 0.53007 133.605 0.535514H132.6ZM138.328 15.9749C138.333 17.6886 138.658 19.1575 139.308 20.3761C139.958 21.5947 140.903 22.5305 142.142 23.1833C143.381 23.8307 144.894 24.1626 146.677 24.168C148.206 24.168 149.511 23.9558 150.598 23.526C151.679 23.1017 152.568 22.4652 153.259 21.622C153.955 20.7733 154.483 19.7178 154.843 18.4558C154.904 18.2599 154.904 18.0967 154.843 17.9607C154.782 17.8301 154.66 17.7213 154.478 17.6397L153.533 17.248C153.35 17.199 153.193 17.2099 153.055 17.2752C152.923 17.3459 152.817 17.4765 152.741 17.6723C152.462 18.6624 152.07 19.4731 151.568 20.1096C151.065 20.7461 150.415 21.2194 149.618 21.524C148.82 21.8287 147.84 21.981 146.677 21.981C145.362 21.9756 144.255 21.7362 143.341 21.2683C142.432 20.795 141.741 20.115 141.269 19.2228C140.791 18.3361 140.557 17.2643 140.553 16.0076V8.23891C140.553 6.97135 140.786 5.8942 141.253 5.00741C141.721 4.12062 142.406 3.44061 143.315 2.97276C144.224 2.5049 145.346 2.26554 146.677 2.26554C147.82 2.2601 148.785 2.41243 149.572 2.71163C150.364 3.01083 151.009 3.47324 151.512 4.09348C152.01 4.71364 152.401 5.50792 152.68 6.47626C152.756 6.65581 152.858 6.77551 152.985 6.8408C153.111 6.90606 153.274 6.91695 153.472 6.86799L154.417 6.50892C154.64 6.43278 154.777 6.32937 154.828 6.20427C154.879 6.07912 154.863 5.89961 154.782 5.66025C154.422 4.40899 153.894 3.36992 153.203 2.54297C152.512 1.71606 151.629 1.10129 150.552 0.69328C149.475 0.279828 148.185 0.0785446 146.677 0.0785446C144.874 0.0839885 143.356 0.410374 142.117 1.06322C140.877 1.71606 139.933 2.65178 139.293 3.87041C138.653 5.089 138.333 6.55789 138.328 8.27154V15.9749ZM156.976 0.535514C156.753 0.53007 156.59 0.579032 156.499 0.676988C156.407 0.774907 156.362 0.948969 156.367 1.18836V2.10233C156.362 2.34169 156.407 2.51034 156.499 2.61371C156.59 2.71162 156.753 2.75514 156.976 2.75514H163.131V23.0582C163.126 23.2976 163.172 23.4717 163.263 23.5696C163.355 23.6675 163.517 23.7165 163.741 23.711H164.746C164.97 23.7165 165.132 23.6675 165.224 23.5696C165.315 23.4717 165.361 23.2976 165.356 23.0582V2.75514H171.511C171.734 2.75514 171.897 2.71162 171.988 2.61371C172.079 2.51034 172.125 2.34169 172.12 2.10233V1.18836C172.125 0.948969 172.079 0.774907 171.988 0.676988C171.897 0.579032 171.734 0.53007 171.511 0.535514H156.976ZM174.253 15.9749C174.258 17.6886 174.583 19.1575 175.228 20.3761C175.873 21.5947 176.818 22.5305 178.062 23.1833C179.306 23.8307 180.83 24.1626 182.632 24.168C184.425 24.1626 185.939 23.8307 187.183 23.1833C188.422 22.5305 189.366 21.5947 190.012 20.3761C190.651 19.1575 190.976 17.6886 190.981 15.9749V8.27154C190.976 6.55789 190.651 5.089 190.012 3.87041C189.366 2.65178 188.422 1.71606 187.183 1.06322C185.939 0.410374 184.425 0.0839885 182.632 0.0785446C180.83 0.0839885 179.306 0.410374 178.062 1.06322C176.818 1.71606 175.873 2.65178 175.228 3.87041C174.583 5.089 174.258 6.55789 174.253 8.27154V15.9749ZM188.788 15.9749C188.788 17.2535 188.549 18.3361 188.081 19.2283C187.609 20.1205 186.919 20.8059 186.005 21.2738C185.091 21.7417 183.963 21.9756 182.632 21.981C181.302 21.9756 180.175 21.7417 179.255 21.2738C178.336 20.8059 177.64 20.1205 177.163 19.2283C176.686 18.3361 176.447 17.2535 176.447 15.9749V8.27154C176.447 6.99313 176.686 5.91053 177.163 5.01834C177.64 4.12062 178.336 3.44061 179.255 2.97276C180.175 2.5049 181.302 2.26554 182.632 2.26554C183.963 2.26554 185.091 2.5049 186.005 2.97276C186.919 3.44061 187.609 4.12062 188.081 5.01834C188.549 5.91053 188.788 6.99313 188.788 8.27154V15.9749ZM195.705 0.535514C195.481 0.53007 195.318 0.579032 195.227 0.676988C195.136 0.774907 195.09 0.948969 195.095 1.18836V23.0582C195.09 23.2976 195.136 23.4717 195.227 23.5696C195.318 23.6675 195.481 23.7165 195.705 23.711H204.632C205.927 23.7056 207.05 23.4608 207.989 22.9711C208.928 22.4816 209.655 21.7743 210.163 20.8495C210.676 19.9192 210.935 18.7985 210.94 17.4765C210.94 15.9097 210.635 14.653 210.031 13.701C209.421 12.7544 208.517 12.1069 207.314 11.7643V11.699C208.273 11.2583 208.989 10.6 209.467 9.72413C209.939 8.84826 210.178 7.76563 210.178 6.47626C210.173 5.19781 209.944 4.12062 209.487 3.23933C209.03 2.35802 208.365 1.68344 207.487 1.22643C206.613 0.769463 205.551 0.535514 204.297 0.535514H195.705ZM207.923 6.77006C207.918 8.12466 207.588 9.142 206.923 9.82749C206.257 10.5075 205.292 10.8503 204.023 10.8503H197.289V2.75514H204.023C205.318 2.75514 206.293 3.08701 206.943 3.75615C207.598 4.42532 207.923 5.43177 207.923 6.77006ZM207.588 20.4143C207.238 20.7733 206.806 21.0453 206.293 21.2248C205.78 21.4044 205.196 21.4914 204.541 21.4914H197.289V12.9719H204.541C205.196 12.9719 205.78 13.059 206.293 13.2385C206.806 13.4181 207.238 13.6901 207.588 14.0491C207.938 14.4245 208.197 14.876 208.37 15.4038C208.543 15.9315 208.624 16.5462 208.624 17.248C208.624 17.9498 208.543 18.5645 208.37 19.0868C208.197 19.6145 207.938 20.0552 207.588 20.4143Z" fill="#140A32"/>
<path id="Vector_2" d="M78.3011 10.8503H72.9991V1.18836C73.0042 0.948969 72.9636 0.774907 72.8824 0.676988C72.7961 0.579032 72.6436 0.53007 72.4202 0.535514H71.4145C71.1911 0.53007 71.0288 0.579032 70.9373 0.676988C70.8459 0.774907 70.8002 0.948969 70.8053 1.18836V23.0582C70.8002 23.2976 70.8459 23.4717 70.9373 23.5696C71.0288 23.6675 71.1911 23.7165 71.4145 23.711H72.4202C72.6436 23.7165 72.7961 23.6675 72.8824 23.5696C72.9636 23.4717 73.0042 23.2976 72.9991 23.0582V13.0699H78.3011V16.0076C78.3062 17.7213 78.6211 19.1847 79.2559 20.4034C79.8904 21.6165 80.82 22.5468 82.049 23.1888C83.273 23.8362 84.7759 24.1626 86.5587 24.168C88.3209 24.1626 89.8089 23.8362 91.0277 23.1888C92.2465 22.5468 93.1706 21.6165 93.8003 20.4034C94.4351 19.1847 94.75 17.7213 94.7551 16.0076V8.23891C94.75 6.52522 94.4351 5.06182 93.8003 3.84322C93.1706 2.63004 92.2465 1.69973 91.0277 1.05233C89.8089 0.410374 88.3209 0.0839885 86.5587 0.0785446C84.7759 0.0839885 83.273 0.410374 82.049 1.05233C80.82 1.69973 79.8904 2.63004 79.2559 3.84322C78.6211 5.06182 78.3062 6.52522 78.3011 8.23891V10.8503ZM92.5614 16.0076C92.5614 17.2861 92.3277 18.3632 91.8655 19.2554C91.4032 20.1422 90.7278 20.8168 89.8341 21.2792C88.9455 21.7471 87.8535 21.9756 86.5587 21.981C85.2586 21.9756 84.1565 21.7471 83.2627 21.2792C82.3639 20.8168 81.6833 20.1422 81.2211 19.2554C80.7589 18.3632 80.5256 17.2861 80.5256 16.0076V8.23891C80.5256 6.9605 80.7589 5.87787 81.2211 4.99112C81.6833 4.10433 82.3639 3.42973 83.2627 2.96187C84.1565 2.49946 85.2586 2.26554 86.5587 2.26554C87.8535 2.26554 88.9455 2.49946 89.8341 2.96187C90.7278 3.42973 91.4032 4.10433 91.8655 4.99112C92.3277 5.87787 92.5614 6.9605 92.5614 8.23891V16.0076ZM99.4783 0.535514C99.2545 0.53007 99.0921 0.579032 99.0007 0.676988C98.9093 0.774907 98.8636 0.948969 98.8687 1.18836V23.0582C98.8636 23.2976 98.9093 23.4717 99.0007 23.5696C99.0921 23.6675 99.2545 23.7165 99.4783 23.711H100.484C100.707 23.7165 100.859 23.6675 100.946 23.5696C101.027 23.4717 101.068 23.2976 101.062 23.0582V14.9957H107.614C109.041 14.9903 110.27 14.702 111.296 14.1307C112.321 13.5649 113.109 12.7435 113.662 11.6663C114.216 10.5946 114.495 9.29977 114.5 7.78196C114.495 6.26412 114.216 4.9639 113.662 3.8867C113.109 2.80954 112.321 1.98264 111.296 1.40597C110.27 0.829309 109.041 0.540959 107.614 0.535514H99.4783ZM101.062 12.8087V2.75514H107.431C108.421 2.76059 109.274 2.96187 109.985 3.35899C110.696 3.7616 111.25 4.33825 111.631 5.08356C112.017 5.83435 112.21 6.73199 112.215 7.78196C112.21 8.83193 112.017 9.72957 111.631 10.4803C111.25 11.2256 110.696 11.8023 109.985 12.1994C109.274 12.602 108.421 12.8033 107.431 12.8087H101.062ZM132.6 0.535514C132.463 0.535514 132.341 0.562736 132.234 0.611693C132.127 0.666096 132.036 0.747686 131.96 0.861938L123.184 14.5388C122.468 15.6649 121.828 16.742 121.254 17.7648C120.686 18.793 120.183 19.7614 119.741 20.6753H119.65C119.772 19.5492 119.863 18.4014 119.924 17.2262C119.985 16.0566 120.015 14.8652 120.015 13.6575V1.18836C120.02 0.948969 119.98 0.774907 119.898 0.676988C119.812 0.579032 119.66 0.53007 119.436 0.535514H118.431C118.208 0.53007 118.045 0.579032 117.953 0.676988C117.862 0.774907 117.816 0.948969 117.821 1.18836V23.0582C117.816 23.2976 117.862 23.4717 117.953 23.5696C118.045 23.6675 118.208 23.7165 118.431 23.711H119.436C119.573 23.711 119.696 23.6784 119.802 23.6185C119.909 23.5532 120 23.4662 120.076 23.352L129.065 9.34873C129.781 8.17362 130.411 7.10191 130.959 6.13897C131.503 5.17604 131.96 4.32195 132.326 3.5712H132.386C132.249 4.72998 132.153 5.86154 132.087 6.97135C132.021 8.08114 131.99 9.16922 131.99 10.2301V23.0582C131.99 23.2976 132.031 23.4717 132.122 23.5696C132.219 23.6675 132.376 23.7165 132.6 23.711H133.605C133.828 23.7165 133.991 23.6675 134.083 23.5696C134.174 23.4717 134.22 23.2976 134.215 23.0582V1.18836C134.22 0.948969 134.174 0.774907 134.083 0.676988C133.991 0.579032 133.828 0.53007 133.605 0.535514H132.6ZM138.328 15.9749C138.333 17.6886 138.658 19.1575 139.308 20.3761C139.958 21.5947 140.903 22.5305 142.142 23.1833C143.381 23.8307 144.894 24.1626 146.677 24.168C148.206 24.168 149.511 23.9558 150.598 23.526C151.679 23.1017 152.568 22.4652 153.259 21.622C153.955 20.7733 154.483 19.7178 154.843 18.4558C154.904 18.2599 154.904 18.0967 154.843 17.9607C154.782 17.8301 154.66 17.7213 154.478 17.6397L153.533 17.248C153.35 17.199 153.193 17.2099 153.055 17.2752C152.923 17.3459 152.817 17.4765 152.741 17.6723C152.462 18.6624 152.07 19.4731 151.567 20.1096C151.065 20.7461 150.415 21.2194 149.618 21.524C148.82 21.8287 147.84 21.981 146.677 21.981C145.362 21.9756 144.255 21.7362 143.341 21.2683C142.432 20.795 141.741 20.115 141.269 19.2228C140.791 18.3361 140.557 17.2643 140.553 16.0076V8.23891C140.553 6.97135 140.786 5.8942 141.253 5.00741C141.721 4.12062 142.406 3.44061 143.315 2.97276C144.224 2.5049 145.346 2.26554 146.677 2.26554C147.82 2.2601 148.785 2.41243 149.572 2.71163C150.364 3.01083 151.009 3.47324 151.512 4.09348C152.01 4.71364 152.401 5.50792 152.68 6.47626C152.756 6.65581 152.858 6.77551 152.985 6.8408C153.111 6.90606 153.274 6.91695 153.472 6.86799L154.417 6.50892C154.64 6.43278 154.777 6.32937 154.828 6.20427C154.879 6.07912 154.863 5.89961 154.782 5.66025C154.422 4.40899 153.894 3.36992 153.203 2.54297C152.512 1.71606 151.629 1.10129 150.552 0.69328C149.475 0.279828 148.185 0.0785446 146.677 0.0785446C144.874 0.0839885 143.356 0.410374 142.117 1.06322C140.877 1.71606 139.933 2.65178 139.293 3.87041C138.653 5.089 138.333 6.55789 138.328 8.27154V15.9749ZM156.976 0.535514C156.753 0.53007 156.59 0.579032 156.499 0.676988C156.407 0.774907 156.362 0.948969 156.367 1.18836V2.10233C156.362 2.34169 156.407 2.51034 156.499 2.61371C156.59 2.71162 156.753 2.75514 156.976 2.75514H163.131V23.0582C163.126 23.2976 163.172 23.4717 163.263 23.5696C163.355 23.6675 163.517 23.7165 163.741 23.711H164.746C164.97 23.7165 165.132 23.6675 165.224 23.5696C165.315 23.4717 165.361 23.2976 165.356 23.0582V2.75514H171.511C171.734 2.75514 171.897 2.71162 171.988 2.61371C172.079 2.51034 172.125 2.34169 172.12 2.10233V1.18836C172.125 0.948969 172.079 0.774907 171.988 0.676988C171.897 0.579032 171.734 0.53007 171.511 0.535514H156.976ZM174.253 15.9749C174.258 17.6886 174.583 19.1575 175.228 20.3761C175.873 21.5947 176.818 22.5305 178.062 23.1833C179.306 23.8307 180.83 24.1626 182.632 24.168C184.425 24.1626 185.939 23.8307 187.183 23.1833C188.422 22.5305 189.366 21.5947 190.012 20.3761C190.651 19.1575 190.976 17.6886 190.981 15.9749V8.27154C190.976 6.55789 190.651 5.089 190.012 3.87041C189.366 2.65178 188.422 1.71606 187.183 1.06322C185.939 0.410374 184.425 0.0839885 182.632 0.0785446C180.83 0.0839885 179.306 0.410374 178.062 1.06322C176.818 1.71606 175.873 2.65178 175.228 3.87041C174.583 5.089 174.258 6.55789 174.253 8.27154V15.9749ZM188.788 15.9749C188.788 17.2535 188.549 18.3361 188.081 19.2283C187.609 20.1205 186.919 20.8059 186.005 21.2738C185.091 21.7417 183.963 21.9756 182.632 21.981C181.302 21.9756 180.175 21.7417 179.255 21.2738C178.336 20.8059 177.64 20.1205 177.163 19.2283C176.686 18.3361 176.447 17.2535 176.447 15.9749V8.27154C176.447 6.99313 176.686 5.91053 177.163 5.01834C177.64 4.12062 178.336 3.44061 179.255 2.97276C180.175 2.5049 181.302 2.26554 182.632 2.26554C183.963 2.26554 185.091 2.5049 186.005 2.97276C186.919 3.44061 187.609 4.12062 188.081 5.01834C188.549 5.91053 188.788 6.99313 188.788 8.27154V15.9749ZM195.705 0.535514C195.481 0.53007 195.318 0.579032 195.227 0.676988C195.136 0.774907 195.09 0.948969 195.095 1.18836V23.0582C195.09 23.2976 195.136 23.4717 195.227 23.5696C195.318 23.6675 195.481 23.7165 195.705 23.711H204.632C205.927 23.7056 207.05 23.4608 207.989 22.9711C208.928 22.4816 209.655 21.7743 210.163 20.8495C210.676 19.9192 210.935 18.7985 210.94 17.4765C210.94 15.9097 210.635 14.653 210.031 13.701C209.421 12.7544 208.517 12.1069 207.314 11.7643V11.699C208.273 11.2583 208.989 10.6 209.467 9.72413C209.939 8.84826 210.178 7.76563 210.178 6.47626C210.173 5.19781 209.944 4.12062 209.487 3.23933C209.03 2.35802 208.365 1.68344 207.487 1.22643C206.613 0.769463 205.551 0.535514 204.297 0.535514H195.705ZM207.923 6.77006C207.918 8.12466 207.588 9.142 206.923 9.82749C206.257 10.5075 205.292 10.8503 204.023 10.8503H197.289V2.75514H204.023C205.318 2.75514 206.293 3.08701 206.943 3.75615C207.598 4.42532 207.923 5.43177 207.923 6.77006ZM207.588 20.4143C207.238 20.7733 206.806 21.0453 206.293 21.2248C205.78 21.4044 205.196 21.4914 204.541 21.4914H197.289V12.9719H204.541C205.196 12.9719 205.78 13.059 206.293 13.2385C206.806 13.4181 207.238 13.6901 207.588 14.0491C207.938 14.4245 208.197 14.876 208.37 15.4038C208.543 15.9315 208.624 16.5462 208.624 17.248C208.624 17.9498 208.543 18.5645 208.37 19.0868C208.197 19.6145 207.938 20.0552 207.588 20.4143Z" fill="#140A32"/>
<path id="Vector_3" d="M6.38741 31.0538H4.96157V28.671C4.9637 28.5533 4.94263 28.4735 4.90058 28.4293C4.8564 28.3873 4.77654 28.3663 4.65879 28.3684H4.1288C4.01105 28.3663 3.93111 28.3873 3.88694 28.4293C3.84492 28.4735 3.82389 28.5533 3.82598 28.671V34.5713C3.82598 34.773 3.92691 34.8739 4.1288 34.8739H4.65879C4.77654 34.876 4.8564 34.855 4.90058 34.8129C4.94263 34.7688 4.9637 34.689 4.96157 34.5713V32.1002H6.38741V32.6675C6.3895 33.1698 6.49888 33.5984 6.71339 33.9556C6.92998 34.3129 7.24334 34.586 7.65554 34.7751C8.06558 34.9642 8.56401 35.0609 9.15071 35.063C9.74166 35.0609 10.2422 34.9642 10.6565 34.7751C11.0687 34.586 11.3841 34.3129 11.6007 33.9556C11.8152 33.5984 11.9245 33.1698 11.9267 32.6675V30.5747C11.9245 30.0725 11.8152 29.6439 11.6007 29.2866C11.3841 28.9294 11.0687 28.6563 10.6565 28.4672C10.2422 28.276 9.74166 28.1814 9.15071 28.1793C8.56401 28.1814 8.06558 28.276 7.65554 28.4672C7.24334 28.6563 6.92998 28.9294 6.71339 29.2866C6.49888 29.6439 6.3895 30.0725 6.38741 30.5747V31.0538ZM10.791 32.6675C10.791 32.9533 10.7237 33.1992 10.5934 33.4051C10.463 33.609 10.2758 33.7665 10.0298 33.8758C9.78583 33.985 9.4935 34.0418 9.15071 34.0418C8.81004 34.0418 8.51775 33.985 8.2738 33.8758C8.03194 33.7665 7.84686 33.609 7.71862 33.4051C7.58821 33.1992 7.52513 32.9533 7.52301 32.6675V30.5747C7.52513 30.2848 7.58821 30.0368 7.71862 29.8308C7.84686 29.6271 8.03194 29.4716 8.2738 29.3623C8.51775 29.2551 8.81004 29.2005 9.15071 29.2005C9.67646 29.2026 10.0824 29.3224 10.3642 29.5619C10.6459 29.7993 10.7889 30.1377 10.791 30.5747V32.6675ZM13.7689 28.5449C13.6364 28.5975 13.5334 28.6521 13.4618 28.7109C13.3903 28.7697 13.342 28.8412 13.3147 28.9294C13.2873 29.0156 13.2747 29.1269 13.2768 29.2635V37.3449C13.2747 37.4523 13.2978 37.5279 13.342 37.5762C13.3861 37.6244 13.4618 37.6474 13.567 37.6474H14.0969C14.2147 37.6496 14.2946 37.6288 14.3388 37.5868C14.3808 37.5425 14.4019 37.4625 14.3998 37.3449V34.7226C14.7278 34.8361 15.0286 34.9201 15.2998 34.9768C15.5732 35.0336 15.8193 35.063 16.0401 35.063C17.8318 35.063 18.7277 34.2057 18.7277 32.4911V30.7134C18.7277 29.8687 18.5069 29.2341 18.0674 28.8118C17.6257 28.3894 16.9675 28.1793 16.0906 28.1793C15.63 28.1793 15.2073 28.2108 14.8204 28.2717C14.4355 28.3348 14.0843 28.4251 13.7689 28.5449ZM17.5921 32.4532C17.5921 32.9764 17.4575 33.3694 17.1841 33.6341C16.9107 33.8968 16.5006 34.0292 15.9518 34.0292C15.7499 34.0292 15.5206 34.0019 15.262 33.9451C15.0012 33.8905 14.7152 33.8085 14.3998 33.7014V29.667C14.3977 29.5935 14.4082 29.5388 14.4334 29.501C14.4566 29.4632 14.5091 29.4317 14.589 29.4022C14.8035 29.3392 15.0223 29.2908 15.2431 29.2593C15.466 29.2278 15.6931 29.2131 15.9265 29.2131C16.4817 29.2131 16.8981 29.3413 17.1757 29.5997C17.4533 29.8561 17.5921 30.2406 17.5921 30.7512V32.4532ZM20.3932 28.3684C20.2755 28.3663 20.1956 28.3873 20.1514 28.4293C20.1094 28.4735 20.0883 28.5533 20.0904 28.671V34.5713C20.0904 34.773 20.1914 34.8739 20.3932 34.8739H20.9232C21.0494 34.8739 21.1504 34.8235 21.2261 34.7226L23.9389 31.0286C24.084 30.8206 24.2165 30.621 24.3342 30.4297C24.4541 30.2385 24.5571 30.0515 24.6455 29.8687H24.6833C24.6139 30.1965 24.5635 30.4991 24.5298 30.7785C24.4983 31.0559 24.4815 31.3123 24.4815 31.5455V34.5713C24.4794 34.689 24.5004 34.7688 24.5424 34.8129C24.5866 34.855 24.6665 34.876 24.7843 34.8739H25.3142C25.432 34.876 25.5119 34.855 25.5561 34.8129C25.5981 34.7688 25.6192 34.689 25.6171 34.5713V28.671C25.6192 28.5533 25.5981 28.4735 25.5561 28.4293C25.5119 28.3873 25.432 28.3663 25.3142 28.3684H24.7843C24.7212 28.3684 24.6644 28.381 24.6161 28.4062C24.5677 28.4315 24.5256 28.4693 24.4941 28.5197L21.7434 32.2515C21.4658 32.6171 21.2387 32.9954 21.062 33.3862H21.0242C21.0936 33.1151 21.144 32.8441 21.1777 32.5709C21.2092 32.2999 21.2261 32.0246 21.2261 31.7472V28.671C21.2282 28.5533 21.2071 28.4735 21.1651 28.4293C21.1209 28.3873 21.041 28.3663 20.9232 28.3684H20.3932ZM32.8724 33.8275V28.671C32.8724 28.5533 32.8492 28.4735 32.8009 28.4293C32.7525 28.3873 32.6768 28.3663 32.5695 28.3684H28.4056C28.2984 28.3663 28.2227 28.3873 28.1743 28.4293C28.1259 28.4735 28.1028 28.5533 28.1028 28.671V30.5747C28.1028 31.0979 28.0838 31.5455 28.0481 31.9195C28.0103 32.2915 27.9577 32.5919 27.8883 32.8189C27.8126 33.0521 27.7243 33.2517 27.6212 33.4177C27.5203 33.5837 27.4025 33.7203 27.27 33.8275H26.9293C26.8242 33.8253 26.7485 33.8485 26.7043 33.8947C26.6602 33.943 26.637 34.025 26.6391 34.1427V36.3238C26.637 36.4309 26.6602 36.5066 26.7043 36.5549C26.7485 36.6031 26.8242 36.6265 26.9293 36.6265H27.4214C27.5287 36.6265 27.6086 36.6009 27.6591 36.5505C27.7117 36.5003 27.7369 36.4246 27.7369 36.3238V34.8739H32.7209V36.3238C32.7209 36.4309 32.7441 36.5066 32.7924 36.5549C32.8408 36.6031 32.9186 36.6265 33.0238 36.6265H33.5159C33.6337 36.6265 33.7136 36.6031 33.7577 36.5549C33.7998 36.5066 33.8208 36.4309 33.8187 36.3238V34.1427C33.8208 34.025 33.7998 33.943 33.7577 33.8947C33.7136 33.8485 33.6337 33.8253 33.5159 33.8275H32.8724ZM29.2005 29.4148H31.7367V33.8275H28.5697C28.7779 33.5249 28.9356 33.1088 29.0407 32.5773C29.148 32.0477 29.2005 31.4005 29.2005 30.6378V29.4148ZM35.1183 28.3684C35.0006 28.3663 34.9207 28.3873 34.8765 28.4293C34.8344 28.4735 34.8134 28.5533 34.8155 28.671V34.5713C34.8155 34.773 34.9164 34.8739 35.1183 34.8739H35.6483C35.7745 34.8739 35.8754 34.8235 35.9511 34.7226L38.6638 31.0286C38.809 30.8206 38.9414 30.621 39.0595 30.4297C39.1791 30.2385 39.2822 30.0515 39.3707 29.8687H39.4084C39.3389 30.1965 39.2884 30.4991 39.2548 30.7785C39.2233 31.0559 39.2065 31.3123 39.2065 31.5455V34.5713C39.2043 34.689 39.2255 34.7688 39.2676 34.8129C39.3118 34.855 39.3915 34.876 39.5093 34.8739H40.0392C40.1569 34.876 40.237 34.855 40.2813 34.8129C40.3233 34.7688 40.3442 34.689 40.342 34.5713V28.671C40.3442 28.5533 40.3233 28.4735 40.2813 28.4293C40.237 28.3873 40.1569 28.3663 40.0392 28.3684H39.5093C39.4464 28.3684 39.3894 28.381 39.3411 28.4062C39.2928 28.4315 39.2508 28.4693 39.2189 28.5197L36.4684 32.2515C36.1909 32.6171 35.9637 32.9954 35.7871 33.3862H35.7493C35.8186 33.1151 35.8691 32.8441 35.9027 32.5709C35.9343 32.2999 35.9511 32.0246 35.9511 31.7472V28.671C35.9532 28.5533 35.9322 28.4735 35.8901 28.4293C35.8459 28.3873 35.7661 28.3663 35.6483 28.3684H35.1183ZM41.5282 30.1965C41.5261 30.9971 41.7323 31.5959 42.1506 31.9952C42.5693 32.3923 43.2148 32.5919 44.0895 32.5919C44.834 32.5919 45.3639 32.5289 45.6795 32.4028V34.5713C45.6795 34.689 45.7025 34.7688 45.7512 34.8129C45.7994 34.855 45.8751 34.876 45.9823 34.8739H46.5122C46.6197 34.876 46.6954 34.855 46.7436 34.8129C46.7919 34.7688 46.8153 34.689 46.8153 34.5713V28.671C46.8153 28.5533 46.7919 28.4735 46.7436 28.4293C46.6954 28.3873 46.6197 28.3663 46.5122 28.3684H45.9823C45.8751 28.3663 45.7994 28.3873 45.7512 28.4293C45.7025 28.4735 45.6795 28.5533 45.6795 28.671V31.3438C45.301 31.4951 44.8216 31.5707 44.2409 31.5707C43.1811 31.5707 42.6513 31.1042 42.6513 30.1713V28.671C42.6535 28.5638 42.6301 28.4882 42.5862 28.4399C42.5419 28.3915 42.4662 28.3684 42.3609 28.3684H41.831C41.7133 28.3663 41.6332 28.3873 41.5893 28.4293C41.5473 28.4735 41.5261 28.5533 41.5282 28.671V30.1965ZM48.1526 32.4406C48.1526 32.9806 48.2557 33.4471 48.4616 33.8379C48.6679 34.2288 48.9769 34.5293 49.3912 34.7415C49.8077 34.9537 50.327 35.0609 50.9538 35.063C51.6098 35.063 52.1653 34.9558 52.6173 34.7394C53.0714 34.5251 53.4207 34.1994 53.6668 33.7644C53.8054 33.5501 53.7677 33.3862 53.5531 33.2727L53.2122 33.0962C53.1073 33.0269 53.017 33.0017 52.9431 33.0206C52.8674 33.0395 52.7939 33.1025 52.7204 33.2097C52.55 33.4997 52.3167 33.7182 52.0241 33.8632C51.7297 34.0082 51.3765 34.0796 50.9666 34.0796C50.4155 34.0775 49.9968 33.9472 49.709 33.6867C49.4226 33.4282 49.2778 33.0542 49.2756 32.5667V31.9615H53.3892C53.5468 31.9615 53.6646 31.9237 53.7403 31.8502C53.8182 31.7745 53.8558 31.6653 53.8558 31.5203V30.789C53.8558 30.2638 53.7465 29.8078 53.5322 29.4169C53.3154 29.0282 52.9958 28.7235 52.573 28.5092C52.1503 28.2928 51.6266 28.1835 51.0042 28.1793C50.3859 28.1814 49.8644 28.2865 49.4395 28.4966C49.0171 28.7088 48.6971 29.0135 48.4806 29.4148C48.262 29.8162 48.1526 30.3037 48.1526 30.8773V32.4406ZM52.7328 31.0916H49.2756V30.726C49.2756 30.3919 49.3429 30.1082 49.4731 29.8708C49.6059 29.6355 49.8015 29.4527 50.0578 29.3287C50.3145 29.2026 50.6298 29.1375 51.0042 29.1375C51.5677 29.1396 51.9967 29.2782 52.2892 29.5535C52.5836 29.8266 52.731 30.2175 52.7328 30.726V31.0916ZM54.9032 32.5163C54.9032 33.0563 55.0063 33.5144 55.2103 33.8947C55.4144 34.2729 55.719 34.5608 56.1271 34.7604C56.5352 34.96 57.0439 35.0609 57.6538 35.063C59.0796 35.063 60.0008 34.4831 60.4173 33.3232C60.455 33.2223 60.455 33.1361 60.4191 33.0668C60.3815 32.9954 60.3098 32.9386 60.2027 32.8945L59.7609 32.7684C59.6454 32.7222 59.555 32.7159 59.494 32.7453C59.4329 32.7768 59.3784 32.8503 59.332 32.9702C59.212 33.3358 59.0167 33.611 58.741 33.7938C58.4678 33.9766 58.1146 34.067 57.6791 34.067C57.1408 34.0628 56.7349 33.9325 56.4573 33.672C56.1798 33.4114 56.0408 33.0437 56.0386 32.5667V30.663C56.0408 30.1881 56.1798 29.8204 56.4573 29.564C56.7349 29.3077 57.1408 29.1774 57.6791 29.1753C58.1146 29.1753 58.4678 29.2635 58.741 29.44C59.0124 29.6165 59.2058 29.8813 59.3195 30.2343C59.3638 30.3478 59.4205 30.4213 59.4918 30.4528C59.5612 30.4865 59.6475 30.4802 59.7485 30.436L60.1902 30.2974C60.2974 30.2595 60.3669 30.2049 60.4005 30.1356C60.4319 30.0641 60.4297 29.9758 60.3921 29.8687C60.2155 29.3077 59.9061 28.8853 59.4625 28.6037C59.0208 28.3201 58.4426 28.1793 57.7295 28.1793C57.1028 28.1814 56.5795 28.2822 56.1607 28.4798C55.7424 28.6794 55.429 28.9673 55.2187 29.3455C55.0085 29.7216 54.9032 30.1776 54.9032 30.7134V32.5163ZM66.0068 32.2767C65.8744 32.0057 65.723 31.785 65.5548 31.6128C65.3844 31.4426 65.1994 31.3186 64.9975 31.2429L67.0165 28.7214C67.1112 28.6017 67.1426 28.5134 67.1112 28.4546C67.0794 28.3978 66.9846 28.3684 66.827 28.3684H66.3476C66.2277 28.3663 66.133 28.3705 66.0657 28.3789C65.9966 28.3873 65.9395 28.4083 65.8934 28.4419C65.8492 28.4735 65.8027 28.526 65.7545 28.5954L63.8745 31.0286H63.7608H62.7643V28.671C62.7661 28.5533 62.7431 28.4735 62.697 28.4293C62.6484 28.3873 62.5664 28.3663 62.4487 28.3684H61.944C61.8263 28.3663 61.744 28.3873 61.6957 28.4293C61.6497 28.4735 61.6263 28.5533 61.6285 28.671V34.5587C61.6263 34.6764 61.6497 34.7583 61.6957 34.8067C61.744 34.8529 61.8263 34.876 61.944 34.8739H62.4487C62.5664 34.876 62.6484 34.8529 62.697 34.8067C62.7431 34.7583 62.7661 34.6764 62.7643 34.5587V32.075H63.9125C64.1078 32.075 64.276 32.096 64.4172 32.1423C64.558 32.1885 64.6779 32.262 64.7788 32.365C64.8798 32.4659 64.9701 32.6004 65.048 32.7684L65.9187 34.5966C65.9545 34.6743 65.99 34.7352 66.028 34.7751C66.0639 34.8151 66.1143 34.8424 66.175 34.855C66.2383 34.8676 66.3246 34.8739 66.4358 34.8739H66.928C67.0731 34.8739 67.1594 34.8466 67.1887 34.7919C67.2183 34.7352 67.1931 34.6448 67.1174 34.5209L66.0068 32.2767ZM68.5052 28.3684C68.3874 28.3663 68.3077 28.3873 68.2634 28.4293C68.2214 28.4735 68.2002 28.5533 68.2024 28.671V34.5713C68.2024 34.773 68.3033 34.8739 68.5052 34.8739H69.0354C69.1616 34.8739 69.2625 34.8235 69.3382 34.7226L72.0508 31.0286C72.196 30.8206 72.3284 30.621 72.4461 30.4297C72.5661 30.2385 72.6692 30.0515 72.7573 29.8687H72.7954C72.7259 30.1965 72.6754 30.4991 72.6418 30.7785C72.6103 31.0559 72.5935 31.3123 72.5935 31.5455V34.5713C72.5913 34.689 72.6125 34.7688 72.6546 34.8129C72.6985 34.855 72.7785 34.876 72.8963 34.8739H73.4262C73.5439 34.876 73.624 34.855 73.6683 34.8129C73.7103 34.7688 73.7312 34.689 73.729 34.5713V28.671C73.7312 28.5533 73.7103 28.4735 73.6683 28.4293C73.624 28.3873 73.5439 28.3663 73.4262 28.3684H72.8963C72.833 28.3684 72.7764 28.381 72.7281 28.4062C72.6798 28.4315 72.6378 28.4693 72.6059 28.5197L69.8553 32.2515C69.5777 32.6171 69.3506 32.9954 69.174 33.3862H69.1363C69.2054 33.1151 69.2559 32.8441 69.2896 32.5709C69.3214 32.2999 69.3382 32.0246 69.3382 31.7472V28.671C69.34 28.5533 69.3192 28.4735 69.2771 28.4293C69.2329 28.3873 69.1532 28.3663 69.0354 28.3684H68.5052ZM75.0666 32.4406C75.0666 32.9806 75.1698 33.4471 75.3756 33.8379C75.5819 34.2288 75.8909 34.5293 76.3052 34.7415C76.7217 34.9537 77.241 35.0609 77.8678 35.063C78.5238 35.063 79.0789 34.9558 79.5313 34.7394C79.9855 34.5251 80.3347 34.1994 80.5804 33.7644C80.7194 33.5501 80.6814 33.3862 80.4671 33.2727L80.1263 33.0962C80.0213 33.0269 79.9306 33.0017 79.8571 33.0206C79.7814 33.0395 79.7079 33.1025 79.6344 33.2097C79.464 33.4997 79.2303 33.7182 78.9381 33.8632C78.6438 34.0082 78.2905 34.0796 77.8802 34.0796C77.3295 34.0775 76.9108 33.9472 76.6226 33.6867C76.3367 33.4282 76.1915 33.0542 76.1897 32.5667V31.9615H80.3029C80.4609 31.9615 80.5786 31.9237 80.6543 31.8502C80.7322 31.7745 80.7699 31.6653 80.7699 31.5203V30.789C80.7699 30.2638 80.6605 29.8078 80.4459 29.4169C80.2294 29.0282 79.9098 28.7235 79.487 28.5092C79.0643 28.2928 78.5406 28.1835 77.9183 28.1793C77.2999 28.1814 76.7784 28.2865 76.3535 28.4966C75.9308 28.7088 75.6111 29.0135 75.3947 29.4148C75.176 29.8162 75.0666 30.3037 75.0666 30.8773V32.4406ZM79.6468 31.0916H76.1897V30.726C76.1897 30.3919 76.2569 30.1082 76.3871 29.8708C76.5199 29.6355 76.7151 29.4527 76.9719 29.3287C77.2286 29.2026 77.5438 29.1375 77.9183 29.1375C78.4818 29.1396 78.9107 29.2782 79.2033 29.5535C79.4976 29.8266 79.6446 30.2175 79.6468 30.726V31.0916ZM89.287 32.2767C89.1543 32.0057 89.0029 31.785 88.8347 31.6128C88.6646 31.4426 88.4792 31.3186 88.2774 31.2429L90.2963 28.7214C90.391 28.6017 90.4225 28.5134 90.391 28.4546C90.3596 28.3978 90.2649 28.3684 90.1072 28.3684H89.6275C89.5079 28.3663 89.4132 28.3705 89.3459 28.3789C89.2764 28.3873 89.2197 28.4083 89.1733 28.4419C89.129 28.4735 89.083 28.526 89.0347 28.5954L87.1543 31.0286H87.041H86.0441V28.671C86.0463 28.5533 86.0229 28.4735 85.9768 28.4293C85.9286 28.3873 85.8463 28.3663 85.7285 28.3684H85.2239C85.1061 28.3663 85.0242 28.3873 84.976 28.4293C84.9295 28.4735 84.9065 28.5533 84.9087 28.671V34.5587C84.9065 34.6764 84.9295 34.7583 84.976 34.8067C85.0242 34.8529 85.1061 34.876 85.2239 34.8739H85.7285C85.8463 34.876 85.9286 34.8529 85.9768 34.8067C86.0229 34.7583 86.0463 34.6764 86.0441 34.5587V32.075H87.1924C87.388 32.075 87.5562 32.096 87.697 32.1423C87.8378 32.1885 87.9577 32.262 88.0587 32.365C88.1596 32.4659 88.2503 32.6004 88.3278 32.7684L89.1985 34.5966C89.2344 34.6743 89.2702 34.7352 89.3079 34.7751C89.3437 34.8151 89.3942 34.8424 89.4552 34.855C89.5181 34.8676 89.6044 34.8739 89.716 34.8739H90.2082C90.353 34.8739 90.4393 34.8466 90.4689 34.7919C90.4982 34.7352 90.4729 34.6448 90.3972 34.5209L89.287 32.2767ZM91.2807 32.6549C91.2826 33.1572 91.3963 33.5879 91.6212 33.9451C91.8461 34.3045 92.1679 34.5797 92.5888 34.773C93.0093 34.9642 93.5162 35.0609 94.1071 35.063C94.7105 35.0609 95.2235 34.9642 95.6441 34.773C96.0668 34.5797 96.3886 34.3045 96.6117 33.9451C96.8326 33.5879 96.9437 33.1572 96.9459 32.6549V30.5999C96.9437 30.0935 96.8326 29.6607 96.6117 29.2993C96.3886 28.9399 96.0668 28.6626 95.6441 28.4714C95.2235 28.278 94.7105 28.1814 94.1071 28.1793C93.5162 28.1814 93.0093 28.278 92.5888 28.4714C92.1679 28.6626 91.8461 28.9399 91.6212 29.2993C91.3963 29.6607 91.2826 30.0935 91.2807 30.5999V32.6549ZM95.8229 32.6549C95.8229 32.9449 95.7534 33.195 95.617 33.4009C95.4802 33.6068 95.2846 33.7665 95.0279 33.8758C94.7738 33.985 94.4666 34.0418 94.1071 34.0418C93.7517 34.0418 93.4489 33.985 93.1944 33.8758C92.9398 33.7665 92.7464 33.6068 92.6096 33.4009C92.4729 33.195 92.4056 32.9449 92.4034 32.6549V30.5873C92.4056 30.2952 92.4729 30.0473 92.6096 29.8414C92.7464 29.6334 92.9398 29.4758 93.1944 29.3665C93.4489 29.2572 93.7517 29.2005 94.1071 29.2005C94.4666 29.2005 94.7738 29.2572 95.0279 29.3665C95.2846 29.4758 95.4802 29.6334 95.617 29.8414C95.7534 30.0473 95.8229 30.2952 95.8229 30.5873V32.6549ZM102.939 28.3684C102.832 28.3663 102.757 28.3873 102.708 28.4293C102.66 28.4735 102.637 28.5533 102.637 28.671V31.0286H99.4443V28.671C99.4465 28.5533 99.4253 28.4735 99.3832 28.4293C99.3393 28.3873 99.2592 28.3663 99.1415 28.3684H98.6116C98.4939 28.3663 98.4138 28.3873 98.3695 28.4293C98.3278 28.4735 98.3066 28.5533 98.3088 28.671V34.5713C98.3088 34.773 98.4097 34.8739 98.6116 34.8739H99.1415C99.2592 34.876 99.3393 34.855 99.3832 34.8129C99.4253 34.7688 99.4465 34.689 99.4443 34.5713V32.075H102.637V34.5713C102.637 34.689 102.66 34.7688 102.708 34.8129C102.757 34.855 102.832 34.876 102.939 34.8739H103.469C103.576 34.876 103.652 34.855 103.701 34.8129C103.749 34.7688 103.772 34.689 103.772 34.5713V28.671C103.772 28.5533 103.749 28.4735 103.701 28.4293C103.652 28.3873 103.576 28.3663 103.469 28.3684H102.939ZM105.122 32.5163C105.122 33.0563 105.225 33.5144 105.429 33.8947C105.633 34.2729 105.938 34.5608 106.346 34.7604C106.754 34.96 107.263 35.0609 107.873 35.063C109.299 35.063 110.22 34.4831 110.636 33.3232C110.674 33.2223 110.674 33.1361 110.639 33.0668C110.601 32.9954 110.529 32.9386 110.422 32.8945L109.98 32.7684C109.864 32.7222 109.774 32.7159 109.713 32.7453C109.652 32.7768 109.598 32.8503 109.551 32.9702C109.431 33.3358 109.236 33.611 108.96 33.7938C108.687 33.9766 108.334 34.067 107.898 34.067C107.36 34.0628 106.954 33.9325 106.676 33.672C106.399 33.4114 106.26 33.0437 106.258 32.5667V30.663C106.26 30.1881 106.399 29.8204 106.676 29.564C106.954 29.3077 107.36 29.1774 107.898 29.1753C108.334 29.1753 108.687 29.2635 108.96 29.44C109.231 29.6165 109.425 29.8813 109.539 30.2343C109.583 30.3478 109.64 30.4213 109.711 30.4528C109.78 30.4865 109.867 30.4802 109.968 30.436L110.409 30.2974C110.516 30.2595 110.586 30.2049 110.62 30.1356C110.651 30.0641 110.649 29.9758 110.611 29.8687C110.435 29.3077 110.125 28.8853 109.682 28.6037C109.24 28.3201 108.662 28.1793 107.949 28.1793C107.322 28.1814 106.799 28.2822 106.38 28.4798C105.962 28.6794 105.648 28.9673 105.438 29.3455C105.228 29.7216 105.122 30.1776 105.122 30.7134V32.5163ZM116.466 28.3684C116.359 28.3663 116.283 28.3873 116.235 28.4293C116.186 28.4735 116.163 28.5533 116.163 28.671V33.5249C115.879 33.6131 115.602 33.6804 115.332 33.7245C115.061 33.7686 114.8 33.7896 114.548 33.7896C114.018 33.7896 113.62 33.6635 113.356 33.4135C113.091 33.1614 112.958 32.7873 112.958 32.2893V28.671C112.96 28.5638 112.937 28.4882 112.893 28.4399C112.849 28.3915 112.773 28.3684 112.668 28.3684H112.138C112.02 28.3663 111.94 28.3873 111.896 28.4293C111.854 28.4735 111.833 28.5533 111.835 28.671V32.3272C111.835 33.1593 112.049 33.7833 112.477 34.1994C112.905 34.6154 113.545 34.8235 114.396 34.8235C114.661 34.8235 114.941 34.8003 115.238 34.7562C115.532 34.7121 115.841 34.6469 116.163 34.5587V35.2395C116.163 35.7943 116.028 36.2103 115.757 36.4877C115.488 36.765 115.084 36.9039 114.548 36.9039C114.188 36.9039 113.879 36.8344 113.619 36.6938C113.36 36.5549 113.147 36.3427 112.983 36.059C112.935 35.9917 112.886 35.9434 112.842 35.914C112.796 35.8846 112.746 35.8741 112.691 35.8804C112.636 35.8846 112.569 35.9077 112.491 35.9455L112.125 36.1472C112.018 36.204 111.953 36.2712 111.93 36.349C111.906 36.4267 111.93 36.5192 111.999 36.6265C112.245 37.0551 112.58 37.3767 113.006 37.5908C113.431 37.8053 113.948 37.9123 114.561 37.9123C116.378 37.9123 117.286 37.0047 117.286 35.1891V28.671C117.288 28.5533 117.267 28.4735 117.225 28.4293C117.181 28.3873 117.101 28.3663 116.983 28.3684H116.466ZM119.81 28.3684C119.692 28.3663 119.612 28.3873 119.568 28.4293C119.526 28.4735 119.505 28.5533 119.507 28.671V30.6378C119.507 31.2934 119.475 31.8418 119.41 32.2831C119.343 32.7243 119.242 33.0584 119.103 33.2853C119.012 33.4345 118.93 33.5501 118.855 33.6341C118.779 33.7182 118.699 33.7896 118.615 33.8443C118.531 33.8989 118.428 33.9556 118.308 34.0166C118.239 34.0607 118.194 34.1111 118.176 34.17C118.157 34.2267 118.163 34.2939 118.194 34.3696L118.459 34.8739C118.504 34.9558 118.554 35.0084 118.615 35.0336C118.674 35.0588 118.743 35.0567 118.826 35.0252C118.996 34.9432 119.149 34.8571 119.286 34.7667C119.421 34.6743 119.549 34.5629 119.669 34.4305C119.791 34.2981 119.913 34.1322 120.037 33.9283C120.226 33.6257 120.367 33.2034 120.462 32.6655C120.556 32.1275 120.605 31.4762 120.605 30.7134V29.4148H123.04V34.5713C123.037 34.689 123.059 34.7688 123.101 34.8129C123.145 34.855 123.225 34.876 123.342 34.8739H123.86C123.967 34.876 124.043 34.855 124.091 34.8129C124.14 34.7688 124.163 34.689 124.163 34.5713V28.671C124.163 28.5533 124.14 28.4735 124.091 28.4293C124.043 28.3873 123.967 28.3663 123.86 28.3684H119.81ZM126.775 30.3352V28.671C126.777 28.5533 126.756 28.4735 126.714 28.4293C126.669 28.3873 126.59 28.3663 126.472 28.3684H125.942C125.824 28.3663 125.744 28.3873 125.7 28.4293C125.658 28.4735 125.637 28.5533 125.639 28.671V34.5713C125.637 34.689 125.658 34.7688 125.7 34.8129C125.744 34.855 125.824 34.876 125.942 34.8739H128.73C129.216 34.8718 129.633 34.7793 129.977 34.5986C130.322 34.4179 130.587 34.1574 130.772 33.8169C130.957 33.4766 131.05 33.0689 131.052 32.5919C131.05 32.1191 130.957 31.7157 130.772 31.3795C130.587 31.0433 130.322 30.7848 129.977 30.6063C129.633 30.4276 129.216 30.3373 128.73 30.3352H126.775ZM126.775 33.8653V31.3564H128.592C128.993 31.3606 129.305 31.4699 129.527 31.6863C129.75 31.9027 129.864 32.2032 129.866 32.5919C129.864 32.9933 129.75 33.3043 129.527 33.527C129.305 33.7497 128.993 33.8611 128.592 33.8653H126.775ZM131.872 28.3684C131.754 28.3663 131.675 28.3873 131.63 28.4293C131.588 28.4735 131.567 28.5533 131.569 28.671V29.1122C131.567 29.2194 131.588 29.295 131.63 29.3434C131.675 29.3917 131.754 29.4148 131.872 29.4148H133.714V34.5713C133.713 34.689 133.733 34.7688 133.775 34.8129C133.82 34.855 133.899 34.876 134.017 34.8739H134.547C134.652 34.876 134.728 34.855 134.772 34.8129C134.817 34.7688 134.84 34.689 134.837 34.5713V29.4148H136.68C136.787 29.4148 136.863 29.3917 136.911 29.3434C136.959 29.295 136.983 29.2194 136.983 29.1122V28.671C136.983 28.5533 136.959 28.4735 136.911 28.4293C136.863 28.3873 136.787 28.3663 136.68 28.3684H131.872ZM137.815 29.5031C137.765 29.6039 137.752 29.6901 137.78 29.7594C137.805 29.8308 137.872 29.8876 137.979 29.9317L138.371 30.1082C138.448 30.1377 138.509 30.1523 138.551 30.1523C138.593 30.1523 138.631 30.1377 138.665 30.1061C138.699 30.0725 138.739 30.0242 138.787 29.9569C138.945 29.6985 139.153 29.5052 139.414 29.3791C139.672 29.2509 139.986 29.1879 140.352 29.1879C140.719 29.1879 141.014 29.2467 141.235 29.3602C141.456 29.4758 141.613 29.6439 141.71 29.8666C141.807 30.0914 141.855 30.3646 141.853 30.6882V31.1673C141.601 31.1357 141.355 31.1126 141.115 31.1C140.875 31.0853 140.642 31.079 140.414 31.079C139.739 31.0769 139.197 31.1399 138.783 31.2682C138.368 31.3963 138.068 31.6043 137.878 31.8943C137.691 32.1864 137.599 32.573 137.601 33.0584C137.601 33.4051 137.651 33.7056 137.75 33.9578C137.851 34.2099 137.998 34.4137 138.194 34.5713C138.389 34.7352 138.669 34.8571 139.033 34.939C139.397 35.021 139.84 35.063 140.364 35.063C140.837 35.063 141.254 35.0357 141.615 34.9789C141.975 34.9243 142.282 34.8423 142.534 34.7352C142.652 34.6869 142.742 34.6343 142.81 34.5797C142.875 34.5251 142.921 34.4537 142.949 34.3654C142.976 34.2771 142.989 34.1616 142.989 34.0166V30.726C142.991 30.1986 142.907 29.7448 142.734 29.3644C142.562 28.9862 142.284 28.6941 141.901 28.4882C141.517 28.2844 141.01 28.1814 140.377 28.1793C139.752 28.1793 139.226 28.2886 138.797 28.5092C138.371 28.7298 138.042 29.0618 137.815 29.5031ZM141.853 33.6888C141.853 33.7581 141.838 33.8149 141.807 33.8611C141.775 33.9052 141.727 33.9409 141.664 33.9662C141.374 34.067 140.907 34.1174 140.263 34.1174C139.874 34.1174 139.569 34.0796 139.346 34.0019C139.123 33.9262 138.963 33.8085 138.871 33.6531C138.778 33.4955 138.734 33.2979 138.736 33.0584C138.734 32.8104 138.783 32.6088 138.882 32.4532C138.98 32.2977 139.142 32.1822 139.369 32.1086C139.599 32.0351 139.904 31.9994 140.288 31.9994C140.472 31.9994 140.694 32.0078 140.957 32.0267C141.22 32.0435 141.518 32.0687 141.853 32.1002V33.6888ZM149.79 33.8275V28.671C149.79 28.5533 149.766 28.4735 149.718 28.4293C149.67 28.3873 149.594 28.3663 149.487 28.3684H148.957C148.85 28.3663 148.774 28.3873 148.725 28.4293C148.677 28.4735 148.654 28.5533 148.654 28.671V33.8275H145.588V28.671C145.59 28.5533 145.569 28.4735 145.527 28.4293C145.483 28.3873 145.403 28.3663 145.285 28.3684H144.755C144.553 28.3684 144.452 28.4693 144.452 28.671V34.5713C144.45 34.689 144.471 34.7688 144.513 34.8129C144.557 34.855 144.637 34.876 144.755 34.8739H149.638V36.3238C149.638 36.4309 149.662 36.5066 149.71 36.5549C149.758 36.6031 149.836 36.6265 149.941 36.6265H150.433C150.551 36.6265 150.631 36.6031 150.675 36.5549C150.717 36.5066 150.738 36.4309 150.736 36.3238V34.1427C150.738 34.025 150.717 33.943 150.675 33.8947C150.631 33.8485 150.551 33.8253 150.433 33.8275H149.79Z" fill="#140A32"/>
<path id="Vector_4" d="M152.036 28.3687C151.918 28.3666 151.838 28.3876 151.794 28.4296C151.752 28.4738 151.731 28.5536 151.733 28.6713V34.5716C151.733 34.7733 151.834 34.8742 152.036 34.8742H152.565C152.692 34.8742 152.793 34.8237 152.868 34.7229L155.581 31.0289C155.726 30.8208 155.859 30.6212 155.977 30.43C156.096 30.2388 156.2 30.0518 156.288 29.869H156.326C156.256 30.1968 156.206 30.4994 156.172 30.7788C156.141 31.0562 156.124 31.3125 156.124 31.5458V34.5716C156.122 34.6892 156.143 34.7691 156.185 34.8132C156.229 34.8553 156.309 34.8763 156.427 34.8742H156.957C157.074 34.8763 157.154 34.8553 157.198 34.8132C157.24 34.7691 157.262 34.6892 157.259 34.5716V28.6713C157.262 28.5536 157.24 28.4738 157.198 28.4296C157.154 28.3876 157.074 28.3666 156.957 28.3687H156.427C156.363 28.3687 156.307 28.3813 156.258 28.4065C156.21 28.4317 156.168 28.4696 156.136 28.52L153.386 32.2518C153.108 32.6174 152.881 32.9957 152.704 33.3865H152.666C152.736 33.1154 152.786 32.8443 152.82 32.5712C152.851 32.3001 152.868 32.0249 152.868 31.7475V28.6713C152.87 28.5536 152.85 28.4738 152.808 28.4296C152.763 28.3876 152.683 28.3666 152.565 28.3687H152.036ZM159.127 28.3687C159.009 28.3666 158.929 28.3876 158.885 28.4296C158.843 28.4738 158.822 28.5536 158.824 28.6713V34.5716C158.824 34.7733 158.925 34.8742 159.127 34.8742H159.657C159.783 34.8742 159.884 34.8237 159.96 34.7229L162.673 31.0289C162.818 30.8208 162.95 30.6212 163.068 30.43C163.188 30.2388 163.291 30.0518 163.379 29.869H163.417C163.348 30.1968 163.297 30.4994 163.264 30.7788C163.232 31.0562 163.215 31.3125 163.215 31.5458V34.5716C163.213 34.6892 163.234 34.7691 163.276 34.8132C163.32 34.8553 163.4 34.8763 163.518 34.8742H164.048C164.166 34.8763 164.245 34.8553 164.29 34.8132C164.332 34.7691 164.353 34.6892 164.351 34.5716V28.6713C164.353 28.5536 164.332 28.4738 164.29 28.4296C164.245 28.3876 164.166 28.3666 164.048 28.3687H163.518C163.455 28.3687 163.398 28.3813 163.349 28.4065C163.301 28.4317 163.259 28.4696 163.228 28.52L160.477 32.2518C160.199 32.6174 159.972 32.9957 159.796 33.3865H159.758C159.827 33.1154 159.878 32.8443 159.911 32.5712C159.943 32.3001 159.96 32.0249 159.96 31.7475V28.6713C159.962 28.5536 159.941 28.4738 159.898 28.4296C159.855 28.3876 159.775 28.3666 159.657 28.3687H159.127ZM168.59 32.6552C168.592 33.1574 168.706 33.5882 168.931 33.9454C169.156 34.3048 169.478 34.58 169.898 34.7733C170.319 34.9645 170.826 35.0612 171.417 35.0633C172.02 35.0612 172.533 34.9645 172.954 34.7733C173.377 34.58 173.698 34.3048 173.921 33.9454C174.142 33.5882 174.253 33.1574 174.256 32.6552V30.6002C174.253 30.0938 174.142 29.6609 173.921 29.2996C173.698 28.9402 173.377 28.6629 172.954 28.4716C172.533 28.2783 172.02 28.1817 171.417 28.1796C170.826 28.1817 170.319 28.2783 169.898 28.4716C169.478 28.6629 169.156 28.9402 168.931 29.2996C168.706 29.6609 168.592 30.0938 168.59 30.6002V32.6552ZM173.133 32.6552C173.133 32.9452 173.063 33.1953 172.927 33.4012C172.79 33.6071 172.594 33.7668 172.338 33.8761C172.083 33.9853 171.776 34.0421 171.417 34.0421C171.061 34.0421 170.759 33.9853 170.504 33.8761C170.25 33.7668 170.056 33.6071 169.919 33.4012C169.783 33.1953 169.715 32.9452 169.713 32.6552V30.5876C169.715 30.2955 169.783 30.0476 169.919 29.8417C170.056 29.6336 170.25 29.4761 170.504 29.3668C170.759 29.2575 171.061 29.2008 171.417 29.2008C171.776 29.2008 172.083 29.2575 172.338 29.3668C172.594 29.4761 172.79 29.6336 172.927 29.8417C173.063 30.0476 173.133 30.2955 173.133 30.5876V32.6552ZM180.249 28.3687C180.142 28.3666 180.066 28.3876 180.018 28.4296C179.969 28.4738 179.946 28.5536 179.946 28.6713V31.0289H176.754V28.6713C176.756 28.5536 176.735 28.4738 176.693 28.4296C176.649 28.3876 176.569 28.3666 176.451 28.3687H175.921C175.804 28.3666 175.723 28.3876 175.679 28.4296C175.637 28.4738 175.616 28.5536 175.619 28.6713V34.5716C175.619 34.7733 175.719 34.8742 175.921 34.8742H176.451C176.569 34.8763 176.649 34.8553 176.693 34.8132C176.735 34.7691 176.756 34.6892 176.754 34.5716V32.0753H179.946V34.5716C179.946 34.6892 179.969 34.7691 180.018 34.8132C180.066 34.8553 180.142 34.8763 180.249 34.8742H180.779C180.886 34.8763 180.962 34.8553 181.011 34.8132C181.059 34.7691 181.082 34.6892 181.082 34.5716V28.6713C181.082 28.5536 181.059 28.4738 181.011 28.4296C180.962 28.3876 180.886 28.3666 180.779 28.3687H180.249ZM183.631 28.3687C183.513 28.3666 183.433 28.3876 183.389 28.4296C183.347 28.4738 183.326 28.5536 183.328 28.6713V30.638C183.328 31.2937 183.296 31.8421 183.231 32.2833C183.164 32.7246 183.063 33.0587 182.924 33.2856C182.834 33.4348 182.752 33.5503 182.676 33.6344C182.6 33.7185 182.52 33.7899 182.436 33.8446C182.352 33.8992 182.249 33.9559 182.129 34.0169C182.06 34.061 182.016 34.1114 181.997 34.1703C181.978 34.227 181.984 34.2942 182.016 34.3699L182.281 34.8742C182.325 34.9561 182.375 35.0087 182.436 35.0339C182.495 35.0591 182.565 35.057 182.647 35.0255C182.817 34.9435 182.971 34.8574 183.107 34.767C183.242 34.6746 183.37 34.5632 183.49 34.4308C183.612 34.2984 183.734 34.1324 183.858 33.9286C184.047 33.626 184.188 33.2037 184.283 32.6657C184.377 32.1278 184.426 31.4765 184.426 30.7137V29.4151H186.861V34.5716C186.859 34.6892 186.88 34.7691 186.922 34.8132C186.966 34.8553 187.046 34.8763 187.164 34.8742H187.681C187.789 34.8763 187.864 34.8553 187.912 34.8132C187.961 34.7691 187.984 34.6892 187.984 34.5716V28.6713C187.984 28.5536 187.961 28.4738 187.912 28.4296C187.864 28.3876 187.789 28.3666 187.681 28.3687H183.631ZM189.334 29.5034C189.283 29.6042 189.271 29.6903 189.298 29.7597C189.324 29.8311 189.391 29.8879 189.498 29.932L189.889 30.1085C189.967 30.1379 190.028 30.1526 190.07 30.1526C190.112 30.1526 190.15 30.1379 190.184 30.1064C190.217 30.0728 190.257 30.0245 190.306 29.9572C190.464 29.6988 190.672 29.5055 190.932 29.3794C191.191 29.2512 191.504 29.1882 191.87 29.1882C192.238 29.1882 192.533 29.247 192.753 29.3605C192.974 29.4761 193.132 29.6441 193.229 29.8669C193.325 30.0917 193.374 30.3649 193.372 30.6885V31.1676C193.119 31.136 192.873 31.1129 192.633 31.1003C192.394 31.0856 192.16 31.0793 191.933 31.0793C191.258 31.0772 190.716 31.1402 190.302 31.2684C189.887 31.3966 189.587 31.6046 189.397 31.8946C189.21 32.1867 189.117 32.5733 189.12 33.0587C189.12 33.4054 189.17 33.7059 189.269 33.958C189.37 34.2102 189.517 34.414 189.713 34.5716C189.908 34.7355 190.188 34.8574 190.552 34.9393C190.915 35.0213 191.359 35.0633 191.883 35.0633C192.356 35.0633 192.772 35.036 193.134 34.9792C193.494 34.9246 193.801 34.8426 194.053 34.7355C194.171 34.6872 194.262 34.6346 194.329 34.58C194.394 34.5253 194.44 34.4539 194.467 34.3657C194.495 34.2774 194.507 34.1619 194.507 34.0169V30.7263C194.509 30.1989 194.425 29.745 194.253 29.3647C194.08 28.9865 193.803 28.6943 193.42 28.4885C193.035 28.2846 192.529 28.1817 191.896 28.1796C191.271 28.1796 190.745 28.2888 190.316 28.5095C189.889 28.7301 189.561 29.0621 189.334 29.5034ZM193.372 33.689C193.372 33.7584 193.357 33.8151 193.325 33.8614C193.294 33.9055 193.246 33.9412 193.182 33.9664C192.892 34.0673 192.425 34.1177 191.782 34.1177C191.393 34.1177 191.088 34.0799 190.865 34.0021C190.642 33.9265 190.482 33.8088 190.39 33.6533C190.297 33.4957 190.253 33.2982 190.255 33.0587C190.253 32.8107 190.302 32.609 190.4 32.4535C190.499 32.298 190.661 32.1825 190.888 32.1089C191.117 32.0354 191.422 31.9997 191.807 31.9997C191.99 31.9997 192.213 32.0081 192.476 32.027C192.739 32.0438 193.038 32.069 193.372 32.1005V33.689ZM200.728 26.1372C200.747 26.0741 200.747 26.0195 200.726 25.9753C200.703 25.9291 200.659 25.8913 200.589 25.8598L200.148 25.6959C200.021 25.6581 199.933 25.6959 199.882 25.8093C199.719 26.3641 199.353 26.6415 198.785 26.6415C198.501 26.6415 198.27 26.5721 198.091 26.4334C197.912 26.2948 197.782 26.0867 197.7 25.8093C197.674 25.7526 197.637 25.7169 197.586 25.7022C197.536 25.6875 197.473 25.6896 197.397 25.7085L197.006 25.8598C196.936 25.8787 196.892 25.9123 196.869 25.9606C196.848 26.009 196.848 26.0678 196.867 26.1372C197.012 26.5847 197.243 26.9188 197.561 27.1415C197.878 27.3622 198.287 27.4736 198.785 27.4736C199.29 27.4736 199.704 27.3622 200.026 27.1415C200.349 26.9188 200.583 26.5847 200.728 26.1372ZM196.274 28.3687C196.156 28.3666 196.076 28.3876 196.032 28.4296C195.99 28.4738 195.969 28.5536 195.971 28.6713V34.5716C195.971 34.7733 196.072 34.8742 196.274 34.8742H196.804C196.93 34.8742 197.031 34.8237 197.107 34.7229L199.82 31.0289C199.965 30.8208 200.097 30.6212 200.215 30.43C200.335 30.2388 200.438 30.0518 200.526 29.869H200.564C200.495 30.1968 200.444 30.4994 200.41 30.7788C200.379 31.0562 200.362 31.3125 200.362 31.5458V34.5716C200.36 34.6892 200.381 34.7691 200.423 34.8132C200.467 34.8553 200.547 34.8763 200.665 34.8742H201.195C201.313 34.8763 201.393 34.8553 201.437 34.8132C201.479 34.7691 201.5 34.6892 201.498 34.5716V28.6713C201.5 28.5536 201.479 28.4738 201.437 28.4296C201.393 28.3876 201.313 28.3666 201.195 28.3687H200.665C200.602 28.3687 200.545 28.3813 200.497 28.4065C200.448 28.4317 200.406 28.4696 200.375 28.52L197.624 32.2518C197.346 32.6174 197.119 32.9957 196.943 33.3865H196.905C196.974 33.1154 197.025 32.8443 197.058 32.5712C197.09 32.3001 197.107 32.0249 197.107 31.7475V28.6713C197.109 28.5536 197.088 28.4738 197.046 28.4296C197.002 28.3876 196.922 28.3666 196.804 28.3687H196.274ZM207.693 28.3687C207.586 28.3666 207.51 28.3876 207.462 28.4296C207.413 28.4738 207.39 28.5536 207.39 28.6713V31.0289H204.198V28.6713C204.2 28.5536 204.179 28.4738 204.137 28.4296C204.093 28.3876 204.013 28.3666 203.895 28.3687H203.365C203.247 28.3666 203.167 28.3876 203.123 28.4296C203.081 28.4738 203.06 28.5536 203.062 28.6713V34.5716C203.062 34.7733 203.163 34.8742 203.365 34.8742H203.895C204.013 34.8763 204.093 34.8553 204.137 34.8132C204.179 34.7691 204.2 34.6892 204.198 34.5716V32.0753H207.39V34.5716C207.39 34.6892 207.413 34.7691 207.462 34.8132C207.51 34.8553 207.586 34.8763 207.693 34.8742H208.223C208.33 34.8763 208.406 34.8553 208.454 34.8132C208.503 34.7691 208.526 34.6892 208.526 34.5716V28.6713C208.526 28.5536 208.503 28.4738 208.454 28.4296C208.406 28.3876 208.33 28.3666 208.223 28.3687H207.693Z" fill="#140A32"/>
<path id="Vector_5" d="M6.38741 31.0538H4.96157V28.671C4.9637 28.5533 4.94263 28.4735 4.90058 28.4293C4.8564 28.3873 4.77654 28.3663 4.65879 28.3684H4.1288C4.01105 28.3663 3.93111 28.3873 3.88694 28.4293C3.84492 28.4735 3.82389 28.5533 3.82598 28.671V34.5713C3.82598 34.773 3.92691 34.8739 4.1288 34.8739H4.65879C4.77654 34.876 4.8564 34.855 4.90058 34.8129C4.94263 34.7688 4.9637 34.689 4.96157 34.5713V32.1002H6.38741V32.6675C6.3895 33.1698 6.49888 33.5984 6.71339 33.9556C6.92998 34.3129 7.24334 34.586 7.65554 34.7751C8.06558 34.9642 8.56401 35.0609 9.15071 35.063C9.74166 35.0609 10.2422 34.9642 10.6565 34.7751C11.0687 34.586 11.3841 34.3129 11.6007 33.9556C11.8152 33.5984 11.9245 33.1698 11.9267 32.6675V30.5747C11.9245 30.0725 11.8152 29.6439 11.6007 29.2866C11.3841 28.9294 11.0687 28.6563 10.6565 28.4672C10.2422 28.276 9.74166 28.1814 9.15071 28.1793C8.56401 28.1814 8.06558 28.276 7.65554 28.4672C7.24334 28.6563 6.92998 28.9294 6.71339 29.2866C6.49888 29.6439 6.3895 30.0725 6.38741 30.5747V31.0538ZM10.791 32.6675C10.791 32.9533 10.7237 33.1992 10.5934 33.4051C10.463 33.609 10.2758 33.7665 10.0298 33.8758C9.78583 33.985 9.4935 34.0418 9.15071 34.0418C8.81004 34.0418 8.51775 33.985 8.2738 33.8758C8.03194 33.7665 7.84686 33.609 7.71862 33.4051C7.58821 33.1992 7.52513 32.9533 7.52301 32.6675V30.5747C7.52513 30.2848 7.58821 30.0368 7.71862 29.8308C7.84686 29.6271 8.03194 29.4716 8.2738 29.3623C8.51775 29.2551 8.81004 29.2005 9.15071 29.2005C9.67646 29.2026 10.0824 29.3224 10.3642 29.5619C10.6459 29.7993 10.7889 30.1377 10.791 30.5747V32.6675ZM13.7689 28.5449C13.6364 28.5975 13.5334 28.6521 13.4618 28.7109C13.3903 28.7697 13.342 28.8412 13.3147 28.9294C13.2873 29.0156 13.2747 29.1269 13.2768 29.2635V37.3449C13.2747 37.4523 13.2978 37.5279 13.342 37.5762C13.3861 37.6244 13.4618 37.6474 13.567 37.6474H14.0969C14.2147 37.6496 14.2946 37.6288 14.3388 37.5868C14.3808 37.5425 14.4019 37.4625 14.3998 37.3449V34.7226C14.7278 34.8361 15.0286 34.9201 15.2998 34.9768C15.5732 35.0336 15.8193 35.063 16.0401 35.063C17.8318 35.063 18.7277 34.2057 18.7277 32.4911V30.7134C18.7277 29.8687 18.5069 29.2341 18.0674 28.8118C17.6257 28.3894 16.9675 28.1793 16.0906 28.1793C15.63 28.1793 15.2073 28.2108 14.8204 28.2717C14.4355 28.3348 14.0843 28.4251 13.7689 28.5449ZM17.5921 32.4532C17.5921 32.9764 17.4575 33.3694 17.1841 33.6341C16.9107 33.8968 16.5006 34.0292 15.9518 34.0292C15.7499 34.0292 15.5206 34.0019 15.262 33.9451C15.0012 33.8905 14.7152 33.8085 14.3998 33.7014V29.667C14.3977 29.5935 14.4082 29.5388 14.4334 29.501C14.4566 29.4632 14.5091 29.4317 14.589 29.4022C14.8035 29.3392 15.0223 29.2908 15.2431 29.2593C15.466 29.2278 15.6931 29.2131 15.9265 29.2131C16.4817 29.2131 16.8981 29.3413 17.1757 29.5997C17.4533 29.8561 17.5921 30.2406 17.5921 30.7512V32.4532ZM20.3932 28.3684C20.2755 28.3663 20.1956 28.3873 20.1514 28.4293C20.1094 28.4735 20.0883 28.5533 20.0904 28.671V34.5713C20.0904 34.773 20.1914 34.8739 20.3932 34.8739H20.9232C21.0494 34.8739 21.1504 34.8235 21.2261 34.7226L23.9389 31.0286C24.084 30.8206 24.2165 30.621 24.3342 30.4297C24.4541 30.2385 24.5571 30.0515 24.6455 29.8687H24.6833C24.6139 30.1965 24.5635 30.4991 24.5298 30.7785C24.4983 31.0559 24.4815 31.3123 24.4815 31.5455V34.5713C24.4794 34.689 24.5004 34.7688 24.5424 34.8129C24.5866 34.855 24.6665 34.876 24.7843 34.8739H25.3142C25.432 34.876 25.5119 34.855 25.5561 34.8129C25.5981 34.7688 25.6192 34.689 25.6171 34.5713V28.671C25.6192 28.5533 25.5981 28.4735 25.5561 28.4293C25.5119 28.3873 25.432 28.3663 25.3142 28.3684H24.7843C24.7212 28.3684 24.6644 28.381 24.6161 28.4062C24.5677 28.4315 24.5256 28.4693 24.4941 28.5197L21.7434 32.2515C21.4658 32.6171 21.2387 32.9954 21.062 33.3862H21.0242C21.0936 33.1151 21.144 32.8441 21.1777 32.5709C21.2092 32.2999 21.2261 32.0246 21.2261 31.7472V28.671C21.2282 28.5533 21.2071 28.4735 21.1651 28.4293C21.1209 28.3873 21.041 28.3663 20.9232 28.3684H20.3932ZM32.8724 33.8275V28.671C32.8724 28.5533 32.8492 28.4735 32.8009 28.4293C32.7525 28.3873 32.6768 28.3663 32.5695 28.3684H28.4056C28.2984 28.3663 28.2227 28.3873 28.1743 28.4293C28.1259 28.4735 28.1028 28.5533 28.1028 28.671V30.5747C28.1028 31.0979 28.0838 31.5455 28.0481 31.9195C28.0103 32.2915 27.9577 32.5919 27.8883 32.8189C27.8126 33.0521 27.7243 33.2517 27.6212 33.4177C27.5203 33.5837 27.4025 33.7203 27.27 33.8275H26.9293C26.8242 33.8253 26.7485 33.8485 26.7043 33.8947C26.6602 33.943 26.637 34.025 26.6391 34.1427V36.3238C26.637 36.4309 26.6602 36.5066 26.7043 36.5549C26.7485 36.6031 26.8242 36.6265 26.9293 36.6265H27.4214C27.5287 36.6265 27.6086 36.6009 27.6591 36.5505C27.7117 36.5003 27.7369 36.4246 27.7369 36.3238V34.8739H32.7209V36.3238C32.7209 36.4309 32.7441 36.5066 32.7924 36.5549C32.8408 36.6031 32.9186 36.6265 33.0238 36.6265H33.5159C33.6337 36.6265 33.7136 36.6031 33.7577 36.5549C33.7998 36.5066 33.8208 36.4309 33.8187 36.3238V34.1427C33.8208 34.025 33.7998 33.943 33.7577 33.8947C33.7136 33.8485 33.6337 33.8253 33.5159 33.8275H32.8724ZM29.2005 29.4148H31.7367V33.8275H28.5697C28.7779 33.5249 28.9356 33.1088 29.0407 32.5773C29.148 32.0477 29.2005 31.4005 29.2005 30.6378V29.4148ZM35.1183 28.3684C35.0006 28.3663 34.9207 28.3873 34.8765 28.4293C34.8344 28.4735 34.8134 28.5533 34.8155 28.671V34.5713C34.8155 34.773 34.9164 34.8739 35.1183 34.8739H35.6483C35.7745 34.8739 35.8754 34.8235 35.9511 34.7226L38.6638 31.0286C38.809 30.8206 38.9414 30.621 39.0595 30.4297C39.1791 30.2385 39.2822 30.0515 39.3707 29.8687H39.4084C39.3389 30.1965 39.2884 30.4991 39.2548 30.7785C39.2233 31.0559 39.2065 31.3123 39.2065 31.5455V34.5713C39.2043 34.689 39.2255 34.7688 39.2676 34.8129C39.3118 34.855 39.3915 34.876 39.5093 34.8739H40.0392C40.1569 34.876 40.237 34.855 40.2813 34.8129C40.3233 34.7688 40.3442 34.689 40.342 34.5713V28.671C40.3442 28.5533 40.3233 28.4735 40.2813 28.4293C40.237 28.3873 40.1569 28.3663 40.0392 28.3684H39.5093C39.4464 28.3684 39.3894 28.381 39.3411 28.4062C39.2928 28.4315 39.2508 28.4693 39.2189 28.5197L36.4684 32.2515C36.1909 32.6171 35.9637 32.9954 35.7871 33.3862H35.7493C35.8186 33.1151 35.8691 32.8441 35.9027 32.5709C35.9343 32.2999 35.9511 32.0246 35.9511 31.7472V28.671C35.9532 28.5533 35.9322 28.4735 35.8901 28.4293C35.8459 28.3873 35.7661 28.3663 35.6483 28.3684H35.1183ZM41.5282 30.1965C41.5261 30.9971 41.7323 31.5959 42.1506 31.9952C42.5693 32.3923 43.2148 32.5919 44.0895 32.5919C44.834 32.5919 45.3639 32.5289 45.6795 32.4028V34.5713C45.6795 34.689 45.7025 34.7688 45.7512 34.8129C45.7994 34.855 45.8751 34.876 45.9823 34.8739H46.5122C46.6197 34.876 46.6954 34.855 46.7436 34.8129C46.7919 34.7688 46.8153 34.689 46.8153 34.5713V28.671C46.8153 28.5533 46.7919 28.4735 46.7436 28.4293C46.6954 28.3873 46.6197 28.3663 46.5122 28.3684H45.9823C45.8751 28.3663 45.7994 28.3873 45.7512 28.4293C45.7025 28.4735 45.6795 28.5533 45.6795 28.671V31.3438C45.301 31.4951 44.8216 31.5707 44.2409 31.5707C43.1811 31.5707 42.6513 31.1042 42.6513 30.1713V28.671C42.6535 28.5638 42.6301 28.4882 42.5862 28.4399C42.5419 28.3915 42.4662 28.3684 42.3609 28.3684H41.831C41.7133 28.3663 41.6332 28.3873 41.5893 28.4293C41.5473 28.4735 41.5261 28.5533 41.5282 28.671V30.1965ZM48.1526 32.4406C48.1526 32.9806 48.2557 33.4471 48.4616 33.8379C48.6679 34.2288 48.9769 34.5293 49.3912 34.7415C49.8077 34.9537 50.327 35.0609 50.9538 35.063C51.6098 35.063 52.1653 34.9558 52.6173 34.7394C53.0714 34.5251 53.4207 34.1994 53.6668 33.7644C53.8054 33.5501 53.7677 33.3862 53.5531 33.2727L53.2122 33.0962C53.1073 33.0269 53.017 33.0017 52.9431 33.0206C52.8674 33.0395 52.7939 33.1025 52.7204 33.2097C52.55 33.4997 52.3167 33.7182 52.0241 33.8632C51.7297 34.0082 51.3765 34.0796 50.9666 34.0796C50.4155 34.0775 49.9968 33.9472 49.709 33.6867C49.4226 33.4282 49.2778 33.0542 49.2756 32.5667V31.9615H53.3892C53.5468 31.9615 53.6646 31.9237 53.7403 31.8502C53.8182 31.7745 53.8558 31.6653 53.8558 31.5203V30.789C53.8558 30.2638 53.7465 29.8078 53.5322 29.4169C53.3154 29.0282 52.9958 28.7235 52.573 28.5092C52.1503 28.2928 51.6266 28.1835 51.0042 28.1793C50.3859 28.1814 49.8644 28.2865 49.4395 28.4966C49.0171 28.7088 48.6971 29.0135 48.4806 29.4148C48.262 29.8162 48.1526 30.3037 48.1526 30.8773V32.4406ZM52.7328 31.0916H49.2756V30.726C49.2756 30.3919 49.3429 30.1082 49.4731 29.8708C49.6059 29.6355 49.8015 29.4527 50.0578 29.3287C50.3145 29.2026 50.6298 29.1375 51.0042 29.1375C51.5677 29.1396 51.9967 29.2782 52.2892 29.5535C52.5836 29.8266 52.731 30.2175 52.7328 30.726V31.0916ZM54.9032 32.5163C54.9032 33.0563 55.0063 33.5144 55.2103 33.8947C55.4144 34.2729 55.719 34.5608 56.1271 34.7604C56.5352 34.96 57.0439 35.0609 57.6538 35.063C59.0796 35.063 60.0008 34.4831 60.4173 33.3232C60.455 33.2223 60.455 33.1361 60.4191 33.0668C60.3815 32.9954 60.3098 32.9386 60.2027 32.8945L59.7609 32.7684C59.6454 32.7222 59.555 32.7159 59.494 32.7453C59.4329 32.7768 59.3784 32.8503 59.332 32.9702C59.212 33.3358 59.0167 33.611 58.741 33.7938C58.4678 33.9766 58.1146 34.067 57.6791 34.067C57.1408 34.0628 56.7349 33.9325 56.4573 33.672C56.1798 33.4114 56.0408 33.0437 56.0386 32.5667V30.663C56.0408 30.1881 56.1798 29.8204 56.4573 29.564C56.7349 29.3077 57.1408 29.1774 57.6791 29.1753C58.1146 29.1753 58.4678 29.2635 58.741 29.44C59.0124 29.6165 59.2058 29.8813 59.3195 30.2343C59.3638 30.3478 59.4205 30.4213 59.4918 30.4528C59.5612 30.4865 59.6475 30.4802 59.7485 30.436L60.1902 30.2974C60.2974 30.2595 60.3669 30.2049 60.4005 30.1356C60.4319 30.0641 60.4297 29.9758 60.3921 29.8687C60.2155 29.3077 59.9061 28.8853 59.4625 28.6037C59.0208 28.3201 58.4426 28.1793 57.7295 28.1793C57.1028 28.1814 56.5795 28.2822 56.1607 28.4798C55.7424 28.6794 55.429 28.9673 55.2187 29.3455C55.0085 29.7216 54.9032 30.1776 54.9032 30.7134V32.5163ZM66.0068 32.2767C65.8744 32.0057 65.723 31.785 65.5548 31.6128C65.3844 31.4426 65.1994 31.3186 64.9975 31.2429L67.0165 28.7214C67.1112 28.6017 67.1426 28.5134 67.1112 28.4546C67.0794 28.3978 66.9846 28.3684 66.827 28.3684H66.3476C66.2277 28.3663 66.133 28.3705 66.0657 28.3789C65.9966 28.3873 65.9395 28.4083 65.8934 28.4419C65.8492 28.4735 65.8027 28.526 65.7545 28.5954L63.8745 31.0286H63.7608H62.7643V28.671C62.7661 28.5533 62.7431 28.4735 62.697 28.4293C62.6484 28.3873 62.5664 28.3663 62.4487 28.3684H61.944C61.8263 28.3663 61.744 28.3873 61.6957 28.4293C61.6497 28.4735 61.6263 28.5533 61.6285 28.671V34.5587C61.6263 34.6764 61.6497 34.7583 61.6957 34.8067C61.744 34.8529 61.8263 34.876 61.944 34.8739H62.4487C62.5664 34.876 62.6484 34.8529 62.697 34.8067C62.7431 34.7583 62.7661 34.6764 62.7643 34.5587V32.075H63.9125C64.1078 32.075 64.276 32.096 64.4172 32.1423C64.558 32.1885 64.6779 32.262 64.7788 32.365C64.8798 32.4659 64.9701 32.6004 65.048 32.7684L65.9187 34.5966C65.9545 34.6743 65.99 34.7352 66.028 34.7751C66.0639 34.8151 66.1143 34.8424 66.175 34.855C66.2383 34.8676 66.3246 34.8739 66.4358 34.8739H66.928C67.0731 34.8739 67.1594 34.8466 67.1887 34.7919C67.2183 34.7352 67.1931 34.6448 67.1174 34.5209L66.0068 32.2767ZM68.5052 28.3684C68.3874 28.3663 68.3077 28.3873 68.2634 28.4293C68.2214 28.4735 68.2002 28.5533 68.2024 28.671V34.5713C68.2024 34.773 68.3033 34.8739 68.5052 34.8739H69.0354C69.1616 34.8739 69.2625 34.8235 69.3382 34.7226L72.0508 31.0286C72.196 30.8206 72.3284 30.621 72.4461 30.4297C72.5661 30.2385 72.6692 30.0515 72.7573 29.8687H72.7954C72.7259 30.1965 72.6754 30.4991 72.6418 30.7785C72.6103 31.0559 72.5935 31.3123 72.5935 31.5455V34.5713C72.5913 34.689 72.6125 34.7688 72.6546 34.8129C72.6985 34.855 72.7785 34.876 72.8963 34.8739H73.4262C73.5439 34.876 73.624 34.855 73.6683 34.8129C73.7103 34.7688 73.7312 34.689 73.729 34.5713V28.671C73.7312 28.5533 73.7103 28.4735 73.6683 28.4293C73.624 28.3873 73.5439 28.3663 73.4262 28.3684H72.8963C72.833 28.3684 72.7764 28.381 72.7281 28.4062C72.6798 28.4315 72.6378 28.4693 72.6059 28.5197L69.8553 32.2515C69.5777 32.6171 69.3506 32.9954 69.174 33.3862H69.1363C69.2054 33.1151 69.2559 32.8441 69.2896 32.5709C69.3214 32.2999 69.3382 32.0246 69.3382 31.7472V28.671C69.34 28.5533 69.3192 28.4735 69.2771 28.4293C69.2329 28.3873 69.1532 28.3663 69.0354 28.3684H68.5052ZM75.0666 32.4406C75.0666 32.9806 75.1698 33.4471 75.3756 33.8379C75.5819 34.2288 75.8909 34.5293 76.3052 34.7415C76.7217 34.9537 77.241 35.0609 77.8678 35.063C78.5238 35.063 79.0789 34.9558 79.5313 34.7394C79.9855 34.5251 80.3347 34.1994 80.5804 33.7644C80.7194 33.5501 80.6814 33.3862 80.4671 33.2727L80.1263 33.0962C80.0213 33.0269 79.9306 33.0017 79.8571 33.0206C79.7814 33.0395 79.7079 33.1025 79.6344 33.2097C79.464 33.4997 79.2303 33.7182 78.9381 33.8632C78.6438 34.0082 78.2905 34.0796 77.8802 34.0796C77.3295 34.0775 76.9108 33.9472 76.6226 33.6867C76.3367 33.4282 76.1915 33.0542 76.1897 32.5667V31.9615H80.3029C80.4609 31.9615 80.5786 31.9237 80.6543 31.8502C80.7322 31.7745 80.7699 31.6653 80.7699 31.5203V30.789C80.7699 30.2638 80.6605 29.8078 80.4459 29.4169C80.2294 29.0282 79.9098 28.7235 79.487 28.5092C79.0643 28.2928 78.5406 28.1835 77.9183 28.1793C77.2999 28.1814 76.7784 28.2865 76.3535 28.4966C75.9308 28.7088 75.6111 29.0135 75.3947 29.4148C75.176 29.8162 75.0666 30.3037 75.0666 30.8773V32.4406ZM79.6468 31.0916H76.1897V30.726C76.1897 30.3919 76.2569 30.1082 76.3871 29.8708C76.5199 29.6355 76.7151 29.4527 76.9719 29.3287C77.2286 29.2026 77.5438 29.1375 77.9183 29.1375C78.4818 29.1396 78.9107 29.2782 79.2033 29.5535C79.4976 29.8266 79.6446 30.2175 79.6468 30.726V31.0916ZM89.287 32.2767C89.1543 32.0057 89.0029 31.785 88.8347 31.6128C88.6646 31.4426 88.4792 31.3186 88.2774 31.2429L90.2963 28.7214C90.391 28.6017 90.4225 28.5134 90.391 28.4546C90.3596 28.3978 90.2649 28.3684 90.1072 28.3684H89.6275C89.5079 28.3663 89.4132 28.3705 89.3459 28.3789C89.2764 28.3873 89.2197 28.4083 89.1733 28.4419C89.129 28.4735 89.083 28.526 89.0347 28.5954L87.1543 31.0286H87.041H86.0441V28.671C86.0463 28.5533 86.0229 28.4735 85.9768 28.4293C85.9286 28.3873 85.8463 28.3663 85.7285 28.3684H85.2239C85.1061 28.3663 85.0242 28.3873 84.976 28.4293C84.9295 28.4735 84.9065 28.5533 84.9087 28.671V34.5587C84.9065 34.6764 84.9295 34.7583 84.976 34.8067C85.0242 34.8529 85.1061 34.876 85.2239 34.8739H85.7285C85.8463 34.876 85.9286 34.8529 85.9768 34.8067C86.0229 34.7583 86.0463 34.6764 86.0441 34.5587V32.075H87.1924C87.388 32.075 87.5562 32.096 87.697 32.1423C87.8378 32.1885 87.9577 32.262 88.0587 32.365C88.1596 32.4659 88.2503 32.6004 88.3278 32.7684L89.1985 34.5966C89.2344 34.6743 89.2702 34.7352 89.3079 34.7751C89.3437 34.8151 89.3942 34.8424 89.4552 34.855C89.5181 34.8676 89.6044 34.8739 89.716 34.8739H90.2082C90.353 34.8739 90.4393 34.8466 90.4689 34.7919C90.4982 34.7352 90.4729 34.6448 90.3972 34.5209L89.287 32.2767ZM91.2807 32.6549C91.2826 33.1572 91.3963 33.5879 91.6212 33.9451C91.8461 34.3045 92.1679 34.5797 92.5888 34.773C93.0093 34.9642 93.5162 35.0609 94.1071 35.063C94.7105 35.0609 95.2235 34.9642 95.6441 34.773C96.0668 34.5797 96.3886 34.3045 96.6117 33.9451C96.8326 33.5879 96.9437 33.1572 96.9459 32.6549V30.5999C96.9437 30.0935 96.8326 29.6607 96.6117 29.2993C96.3886 28.9399 96.0668 28.6626 95.6441 28.4714C95.2235 28.278 94.7105 28.1814 94.1071 28.1793C93.5162 28.1814 93.0093 28.278 92.5888 28.4714C92.1679 28.6626 91.8461 28.9399 91.6212 29.2993C91.3963 29.6607 91.2826 30.0935 91.2807 30.5999V32.6549ZM95.8229 32.6549C95.8229 32.9449 95.7534 33.195 95.617 33.4009C95.4802 33.6068 95.2846 33.7665 95.0279 33.8758C94.7738 33.985 94.4666 34.0418 94.1071 34.0418C93.7517 34.0418 93.4489 33.985 93.1944 33.8758C92.9398 33.7665 92.7464 33.6068 92.6096 33.4009C92.4729 33.195 92.4056 32.9449 92.4034 32.6549V30.5873C92.4056 30.2952 92.4729 30.0473 92.6096 29.8414C92.7464 29.6334 92.9398 29.4758 93.1944 29.3665C93.4489 29.2572 93.7517 29.2005 94.1071 29.2005C94.4666 29.2005 94.7738 29.2572 95.0279 29.3665C95.2846 29.4758 95.4802 29.6334 95.617 29.8414C95.7534 30.0473 95.8229 30.2952 95.8229 30.5873V32.6549ZM102.939 28.3684C102.832 28.3663 102.757 28.3873 102.708 28.4293C102.66 28.4735 102.637 28.5533 102.637 28.671V31.0286H99.4443V28.671C99.4465 28.5533 99.4253 28.4735 99.3832 28.4293C99.3393 28.3873 99.2592 28.3663 99.1415 28.3684H98.6116C98.4939 28.3663 98.4138 28.3873 98.3695 28.4293C98.3278 28.4735 98.3066 28.5533 98.3088 28.671V34.5713C98.3088 34.773 98.4097 34.8739 98.6116 34.8739H99.1415C99.2592 34.876 99.3393 34.855 99.3832 34.8129C99.4253 34.7688 99.4465 34.689 99.4443 34.5713V32.075H102.637V34.5713C102.637 34.689 102.66 34.7688 102.708 34.8129C102.757 34.855 102.832 34.876 102.939 34.8739H103.469C103.576 34.876 103.652 34.855 103.701 34.8129C103.749 34.7688 103.772 34.689 103.772 34.5713V28.671C103.772 28.5533 103.749 28.4735 103.701 28.4293C103.652 28.3873 103.576 28.3663 103.469 28.3684H102.939ZM105.122 32.5163C105.122 33.0563 105.225 33.5144 105.429 33.8947C105.633 34.2729 105.938 34.5608 106.346 34.7604C106.754 34.96 107.263 35.0609 107.873 35.063C109.299 35.063 110.22 34.4831 110.636 33.3232C110.674 33.2223 110.674 33.1361 110.639 33.0668C110.601 32.9954 110.529 32.9386 110.422 32.8945L109.98 32.7684C109.864 32.7222 109.774 32.7159 109.713 32.7453C109.652 32.7768 109.598 32.8503 109.551 32.9702C109.431 33.3358 109.236 33.611 108.96 33.7938C108.687 33.9766 108.334 34.067 107.898 34.067C107.36 34.0628 106.954 33.9325 106.676 33.672C106.399 33.4114 106.26 33.0437 106.258 32.5667V30.663C106.26 30.1881 106.399 29.8204 106.676 29.564C106.954 29.3077 107.36 29.1774 107.898 29.1753C108.334 29.1753 108.687 29.2635 108.96 29.44C109.231 29.6165 109.425 29.8813 109.539 30.2343C109.583 30.3478 109.64 30.4213 109.711 30.4528C109.78 30.4865 109.867 30.4802 109.968 30.436L110.409 30.2974C110.516 30.2595 110.586 30.2049 110.62 30.1356C110.651 30.0641 110.649 29.9758 110.611 29.8687C110.435 29.3077 110.125 28.8853 109.682 28.6037C109.24 28.3201 108.662 28.1793 107.949 28.1793C107.322 28.1814 106.799 28.2822 106.38 28.4798C105.962 28.6794 105.648 28.9673 105.438 29.3455C105.228 29.7216 105.122 30.1776 105.122 30.7134V32.5163ZM116.466 28.3684C116.359 28.3663 116.283 28.3873 116.235 28.4293C116.186 28.4735 116.163 28.5533 116.163 28.671V33.5249C115.879 33.6131 115.602 33.6804 115.332 33.7245C115.061 33.7686 114.8 33.7896 114.548 33.7896C114.018 33.7896 113.62 33.6635 113.356 33.4135C113.091 33.1614 112.958 32.7873 112.958 32.2893V28.671C112.96 28.5638 112.937 28.4882 112.893 28.4399C112.849 28.3915 112.773 28.3684 112.668 28.3684H112.138C112.02 28.3663 111.94 28.3873 111.896 28.4293C111.854 28.4735 111.833 28.5533 111.835 28.671V32.3272C111.835 33.1593 112.049 33.7833 112.477 34.1994C112.905 34.6154 113.545 34.8235 114.396 34.8235C114.661 34.8235 114.941 34.8003 115.238 34.7562C115.532 34.7121 115.841 34.6469 116.163 34.5587V35.2395C116.163 35.7943 116.028 36.2103 115.757 36.4877C115.488 36.765 115.084 36.9039 114.548 36.9039C114.188 36.9039 113.879 36.8344 113.619 36.6938C113.36 36.5549 113.147 36.3427 112.983 36.059C112.935 35.9917 112.886 35.9434 112.842 35.914C112.796 35.8846 112.746 35.8741 112.691 35.8804C112.636 35.8846 112.569 35.9077 112.491 35.9455L112.125 36.1472C112.018 36.204 111.953 36.2712 111.93 36.349C111.906 36.4267 111.93 36.5192 111.999 36.6265C112.245 37.0551 112.58 37.3767 113.006 37.5908C113.431 37.8053 113.948 37.9123 114.561 37.9123C116.378 37.9123 117.286 37.0047 117.286 35.1891V28.671C117.288 28.5533 117.267 28.4735 117.225 28.4293C117.181 28.3873 117.101 28.3663 116.983 28.3684H116.466ZM119.81 28.3684C119.692 28.3663 119.612 28.3873 119.568 28.4293C119.526 28.4735 119.505 28.5533 119.507 28.671V30.6378C119.507 31.2934 119.475 31.8418 119.41 32.2831C119.343 32.7243 119.242 33.0584 119.103 33.2853C119.012 33.4345 118.93 33.5501 118.855 33.6341C118.779 33.7182 118.699 33.7896 118.615 33.8443C118.531 33.8989 118.428 33.9556 118.308 34.0166C118.239 34.0607 118.194 34.1111 118.176 34.17C118.157 34.2267 118.163 34.2939 118.194 34.3696L118.459 34.8739C118.504 34.9558 118.554 35.0084 118.615 35.0336C118.674 35.0588 118.743 35.0567 118.826 35.0252C118.996 34.9432 119.149 34.8571 119.286 34.7667C119.421 34.6743 119.549 34.5629 119.669 34.4305C119.791 34.2981 119.913 34.1322 120.037 33.9283C120.226 33.6257 120.367 33.2034 120.462 32.6655C120.556 32.1275 120.605 31.4762 120.605 30.7134V29.4148H123.04V34.5713C123.037 34.689 123.059 34.7688 123.101 34.8129C123.145 34.855 123.225 34.876 123.342 34.8739H123.86C123.967 34.876 124.043 34.855 124.091 34.8129C124.14 34.7688 124.163 34.689 124.163 34.5713V28.671C124.163 28.5533 124.14 28.4735 124.091 28.4293C124.043 28.3873 123.967 28.3663 123.86 28.3684H119.81ZM126.775 30.3352V28.671C126.777 28.5533 126.756 28.4735 126.714 28.4293C126.669 28.3873 126.59 28.3663 126.472 28.3684H125.942C125.824 28.3663 125.744 28.3873 125.7 28.4293C125.658 28.4735 125.637 28.5533 125.639 28.671V34.5713C125.637 34.689 125.658 34.7688 125.7 34.8129C125.744 34.855 125.824 34.876 125.942 34.8739H128.73C129.216 34.8718 129.633 34.7793 129.977 34.5986C130.322 34.4179 130.587 34.1574 130.772 33.8169C130.957 33.4766 131.05 33.0689 131.052 32.5919C131.05 32.1191 130.957 31.7157 130.772 31.3795C130.587 31.0433 130.322 30.7848 129.977 30.6063C129.633 30.4276 129.216 30.3373 128.73 30.3352H126.775ZM126.775 33.8653V31.3564H128.592C128.993 31.3606 129.305 31.4699 129.527 31.6863C129.75 31.9027 129.864 32.2032 129.866 32.5919C129.864 32.9933 129.75 33.3043 129.527 33.527C129.305 33.7497 128.993 33.8611 128.592 33.8653H126.775ZM131.872 28.3684C131.754 28.3663 131.675 28.3873 131.63 28.4293C131.588 28.4735 131.567 28.5533 131.569 28.671V29.1122C131.567 29.2194 131.588 29.295 131.63 29.3434C131.675 29.3917 131.754 29.4148 131.872 29.4148H133.714V34.5713C133.713 34.689 133.733 34.7688 133.775 34.8129C133.82 34.855 133.899 34.876 134.017 34.8739H134.547C134.652 34.876 134.728 34.855 134.772 34.8129C134.817 34.7688 134.84 34.689 134.837 34.5713V29.4148H136.68C136.787 29.4148 136.863 29.3917 136.911 29.3434C136.959 29.295 136.983 29.2194 136.983 29.1122V28.671C136.983 28.5533 136.959 28.4735 136.911 28.4293C136.863 28.3873 136.787 28.3663 136.68 28.3684H131.872ZM137.815 29.5031C137.765 29.6039 137.752 29.6901 137.78 29.7594C137.805 29.8308 137.872 29.8876 137.979 29.9317L138.371 30.1082C138.448 30.1377 138.509 30.1523 138.551 30.1523C138.593 30.1523 138.631 30.1377 138.665 30.1061C138.699 30.0725 138.739 30.0242 138.787 29.9569C138.945 29.6985 139.153 29.5052 139.414 29.3791C139.672 29.2509 139.986 29.1879 140.352 29.1879C140.719 29.1879 141.014 29.2467 141.235 29.3602C141.456 29.4758 141.613 29.6439 141.71 29.8666C141.807 30.0914 141.855 30.3646 141.853 30.6882V31.1673C141.601 31.1357 141.355 31.1126 141.115 31.1C140.875 31.0853 140.642 31.079 140.414 31.079C139.739 31.0769 139.197 31.1399 138.783 31.2682C138.368 31.3963 138.068 31.6043 137.878 31.8943C137.691 32.1864 137.599 32.573 137.601 33.0584C137.601 33.4051 137.651 33.7056 137.75 33.9578C137.851 34.2099 137.998 34.4137 138.194 34.5713C138.389 34.7352 138.669 34.8571 139.033 34.939C139.397 35.021 139.84 35.063 140.364 35.063C140.837 35.063 141.254 35.0357 141.615 34.9789C141.975 34.9243 142.282 34.8423 142.534 34.7352C142.652 34.6869 142.742 34.6343 142.81 34.5797C142.875 34.5251 142.921 34.4537 142.949 34.3654C142.976 34.2771 142.989 34.1616 142.989 34.0166V30.726C142.991 30.1986 142.907 29.7448 142.734 29.3644C142.562 28.9862 142.284 28.6941 141.901 28.4882C141.517 28.2844 141.01 28.1814 140.377 28.1793C139.752 28.1793 139.226 28.2886 138.797 28.5092C138.371 28.7298 138.042 29.0618 137.815 29.5031ZM141.853 33.6888C141.853 33.7581 141.838 33.8149 141.807 33.8611C141.775 33.9052 141.727 33.9409 141.664 33.9662C141.374 34.067 140.907 34.1174 140.263 34.1174C139.874 34.1174 139.569 34.0796 139.346 34.0019C139.123 33.9262 138.963 33.8085 138.871 33.6531C138.778 33.4955 138.734 33.2979 138.736 33.0584C138.734 32.8104 138.783 32.6088 138.882 32.4532C138.98 32.2977 139.142 32.1822 139.369 32.1086C139.599 32.0351 139.904 31.9994 140.288 31.9994C140.472 31.9994 140.694 32.0078 140.957 32.0267C141.22 32.0435 141.518 32.0687 141.853 32.1002V33.6888ZM149.79 33.8275V28.671C149.79 28.5533 149.766 28.4735 149.718 28.4293C149.67 28.3873 149.594 28.3663 149.487 28.3684H148.957C148.85 28.3663 148.774 28.3873 148.725 28.4293C148.677 28.4735 148.654 28.5533 148.654 28.671V33.8275H145.588V28.671C145.59 28.5533 145.569 28.4735 145.527 28.4293C145.483 28.3873 145.403 28.3663 145.285 28.3684H144.755C144.553 28.3684 144.452 28.4693 144.452 28.671V34.5713C144.45 34.689 144.471 34.7688 144.513 34.8129C144.557 34.855 144.637 34.876 144.755 34.8739H149.638V36.3238C149.638 36.4309 149.662 36.5066 149.71 36.5549C149.758 36.6031 149.836 36.6265 149.941 36.6265H150.433C150.551 36.6265 150.631 36.6031 150.675 36.5549C150.717 36.5066 150.738 36.4309 150.736 36.3238V34.1427C150.738 34.025 150.717 33.943 150.675 33.8947C150.631 33.8485 150.551 33.8253 150.433 33.8275H149.79Z" fill="#140A32"/>
<path id="Vector_6" d="M152.036 28.3687C151.918 28.3666 151.838 28.3876 151.794 28.4296C151.752 28.4738 151.731 28.5536 151.733 28.6713V34.5716C151.733 34.7733 151.834 34.8742 152.036 34.8742H152.565C152.692 34.8742 152.793 34.8237 152.868 34.7229L155.581 31.0289C155.726 30.8208 155.859 30.6212 155.977 30.43C156.096 30.2388 156.2 30.0518 156.288 29.869H156.326C156.256 30.1968 156.206 30.4994 156.172 30.7788C156.141 31.0562 156.124 31.3125 156.124 31.5458V34.5716C156.122 34.6892 156.143 34.7691 156.185 34.8132C156.229 34.8553 156.309 34.8763 156.427 34.8742H156.957C157.074 34.8763 157.154 34.8553 157.198 34.8132C157.24 34.7691 157.262 34.6892 157.259 34.5716V28.6713C157.262 28.5536 157.24 28.4738 157.198 28.4296C157.154 28.3876 157.074 28.3666 156.957 28.3687H156.427C156.363 28.3687 156.307 28.3813 156.258 28.4065C156.21 28.4317 156.168 28.4696 156.136 28.52L153.386 32.2518C153.108 32.6174 152.881 32.9957 152.704 33.3865H152.666C152.736 33.1154 152.786 32.8443 152.82 32.5712C152.851 32.3001 152.868 32.0249 152.868 31.7475V28.6713C152.87 28.5536 152.85 28.4738 152.808 28.4296C152.763 28.3876 152.683 28.3666 152.565 28.3687H152.036ZM159.127 28.3687C159.009 28.3666 158.929 28.3876 158.885 28.4296C158.843 28.4738 158.822 28.5536 158.824 28.6713V34.5716C158.824 34.7733 158.925 34.8742 159.127 34.8742H159.657C159.783 34.8742 159.884 34.8237 159.96 34.7229L162.673 31.0289C162.818 30.8208 162.95 30.6212 163.068 30.43C163.188 30.2388 163.291 30.0518 163.379 29.869H163.417C163.348 30.1968 163.297 30.4994 163.264 30.7788C163.232 31.0562 163.215 31.3125 163.215 31.5458V34.5716C163.213 34.6892 163.234 34.7691 163.276 34.8132C163.32 34.8553 163.4 34.8763 163.518 34.8742H164.048C164.166 34.8763 164.245 34.8553 164.29 34.8132C164.332 34.7691 164.353 34.6892 164.351 34.5716V28.6713C164.353 28.5536 164.332 28.4738 164.29 28.4296C164.245 28.3876 164.166 28.3666 164.048 28.3687H163.518C163.455 28.3687 163.398 28.3813 163.349 28.4065C163.301 28.4317 163.259 28.4696 163.228 28.52L160.477 32.2518C160.199 32.6174 159.972 32.9957 159.796 33.3865H159.758C159.827 33.1154 159.878 32.8443 159.911 32.5712C159.943 32.3001 159.96 32.0249 159.96 31.7475V28.6713C159.962 28.5536 159.941 28.4738 159.898 28.4296C159.855 28.3876 159.775 28.3666 159.657 28.3687H159.127ZM168.59 32.6552C168.592 33.1574 168.706 33.5882 168.931 33.9454C169.156 34.3048 169.478 34.58 169.898 34.7733C170.319 34.9645 170.826 35.0612 171.417 35.0633C172.02 35.0612 172.533 34.9645 172.954 34.7733C173.377 34.58 173.698 34.3048 173.921 33.9454C174.142 33.5882 174.253 33.1574 174.256 32.6552V30.6002C174.253 30.0938 174.142 29.6609 173.921 29.2996C173.698 28.9402 173.377 28.6629 172.954 28.4716C172.533 28.2783 172.02 28.1817 171.417 28.1796C170.826 28.1817 170.319 28.2783 169.898 28.4716C169.478 28.6629 169.156 28.9402 168.931 29.2996C168.706 29.6609 168.592 30.0938 168.59 30.6002V32.6552ZM173.133 32.6552C173.133 32.9452 173.063 33.1953 172.927 33.4012C172.79 33.6071 172.594 33.7668 172.338 33.8761C172.083 33.9853 171.776 34.0421 171.417 34.0421C171.061 34.0421 170.759 33.9853 170.504 33.8761C170.25 33.7668 170.056 33.6071 169.919 33.4012C169.783 33.1953 169.715 32.9452 169.713 32.6552V30.5876C169.715 30.2955 169.783 30.0476 169.919 29.8417C170.056 29.6336 170.25 29.4761 170.504 29.3668C170.759 29.2575 171.061 29.2008 171.417 29.2008C171.776 29.2008 172.083 29.2575 172.338 29.3668C172.594 29.4761 172.79 29.6336 172.927 29.8417C173.063 30.0476 173.133 30.2955 173.133 30.5876V32.6552ZM180.249 28.3687C180.142 28.3666 180.066 28.3876 180.018 28.4296C179.969 28.4738 179.946 28.5536 179.946 28.6713V31.0289H176.754V28.6713C176.756 28.5536 176.735 28.4738 176.693 28.4296C176.649 28.3876 176.569 28.3666 176.451 28.3687H175.921C175.804 28.3666 175.723 28.3876 175.679 28.4296C175.637 28.4738 175.616 28.5536 175.619 28.6713V34.5716C175.619 34.7733 175.719 34.8742 175.921 34.8742H176.451C176.569 34.8763 176.649 34.8553 176.693 34.8132C176.735 34.7691 176.756 34.6892 176.754 34.5716V32.0753H179.946V34.5716C179.946 34.6892 179.969 34.7691 180.018 34.8132C180.066 34.8553 180.142 34.8763 180.249 34.8742H180.779C180.886 34.8763 180.962 34.8553 181.011 34.8132C181.059 34.7691 181.082 34.6892 181.082 34.5716V28.6713C181.082 28.5536 181.059 28.4738 181.011 28.4296C180.962 28.3876 180.886 28.3666 180.779 28.3687H180.249ZM183.631 28.3687C183.513 28.3666 183.433 28.3876 183.389 28.4296C183.347 28.4738 183.326 28.5536 183.328 28.6713V30.638C183.328 31.2937 183.296 31.8421 183.231 32.2833C183.164 32.7246 183.063 33.0587 182.924 33.2856C182.834 33.4348 182.752 33.5503 182.676 33.6344C182.6 33.7185 182.52 33.7899 182.436 33.8446C182.352 33.8992 182.249 33.9559 182.129 34.0169C182.06 34.061 182.016 34.1114 181.997 34.1703C181.978 34.227 181.984 34.2942 182.016 34.3699L182.281 34.8742C182.325 34.9561 182.375 35.0087 182.436 35.0339C182.495 35.0591 182.565 35.057 182.647 35.0255C182.817 34.9435 182.971 34.8574 183.107 34.767C183.242 34.6746 183.37 34.5632 183.49 34.4308C183.612 34.2984 183.734 34.1324 183.858 33.9286C184.047 33.626 184.188 33.2037 184.283 32.6657C184.377 32.1278 184.426 31.4765 184.426 30.7137V29.4151H186.861V34.5716C186.859 34.6892 186.88 34.7691 186.922 34.8132C186.966 34.8553 187.046 34.8763 187.164 34.8742H187.681C187.789 34.8763 187.864 34.8553 187.912 34.8132C187.961 34.7691 187.984 34.6892 187.984 34.5716V28.6713C187.984 28.5536 187.961 28.4738 187.912 28.4296C187.864 28.3876 187.789 28.3666 187.681 28.3687H183.631ZM189.334 29.5034C189.283 29.6042 189.271 29.6903 189.298 29.7597C189.324 29.8311 189.391 29.8879 189.498 29.932L189.889 30.1085C189.967 30.1379 190.028 30.1526 190.07 30.1526C190.112 30.1526 190.15 30.1379 190.184 30.1064C190.217 30.0728 190.257 30.0245 190.306 29.9572C190.464 29.6988 190.672 29.5055 190.932 29.3794C191.191 29.2512 191.504 29.1882 191.87 29.1882C192.238 29.1882 192.533 29.247 192.753 29.3605C192.974 29.4761 193.132 29.6441 193.229 29.8669C193.325 30.0917 193.374 30.3649 193.372 30.6885V31.1676C193.119 31.136 192.873 31.1129 192.633 31.1003C192.394 31.0856 192.16 31.0793 191.933 31.0793C191.258 31.0772 190.716 31.1402 190.302 31.2684C189.887 31.3966 189.587 31.6046 189.397 31.8946C189.21 32.1867 189.117 32.5733 189.12 33.0587C189.12 33.4054 189.17 33.7059 189.269 33.958C189.37 34.2102 189.517 34.414 189.713 34.5716C189.908 34.7355 190.188 34.8574 190.552 34.9393C190.915 35.0213 191.359 35.0633 191.883 35.0633C192.356 35.0633 192.772 35.036 193.134 34.9792C193.494 34.9246 193.801 34.8426 194.053 34.7355C194.171 34.6872 194.262 34.6346 194.329 34.58C194.394 34.5253 194.44 34.4539 194.467 34.3657C194.495 34.2774 194.507 34.1619 194.507 34.0169V30.7263C194.509 30.1989 194.425 29.745 194.253 29.3647C194.08 28.9865 193.803 28.6943 193.42 28.4885C193.035 28.2846 192.529 28.1817 191.896 28.1796C191.271 28.1796 190.745 28.2888 190.316 28.5095C189.889 28.7301 189.561 29.0621 189.334 29.5034ZM193.372 33.689C193.372 33.7584 193.357 33.8151 193.325 33.8614C193.294 33.9055 193.246 33.9412 193.182 33.9664C192.892 34.0673 192.425 34.1177 191.782 34.1177C191.393 34.1177 191.088 34.0799 190.865 34.0021C190.642 33.9265 190.482 33.8088 190.39 33.6533C190.297 33.4957 190.253 33.2982 190.255 33.0587C190.253 32.8107 190.302 32.609 190.4 32.4535C190.499 32.298 190.661 32.1825 190.888 32.1089C191.117 32.0354 191.422 31.9997 191.807 31.9997C191.99 31.9997 192.213 32.0081 192.476 32.027C192.739 32.0438 193.038 32.069 193.372 32.1005V33.689ZM200.728 26.1372C200.747 26.0741 200.747 26.0195 200.726 25.9753C200.703 25.9291 200.659 25.8913 200.589 25.8598L200.148 25.6959C200.021 25.6581 199.933 25.6959 199.882 25.8093C199.719 26.3641 199.353 26.6415 198.785 26.6415C198.501 26.6415 198.27 26.5721 198.091 26.4334C197.912 26.2948 197.782 26.0867 197.7 25.8093C197.674 25.7526 197.637 25.7169 197.586 25.7022C197.536 25.6875 197.473 25.6896 197.397 25.7085L197.006 25.8598C196.936 25.8787 196.892 25.9123 196.869 25.9606C196.848 26.009 196.848 26.0678 196.867 26.1372C197.012 26.5847 197.243 26.9188 197.561 27.1415C197.878 27.3622 198.287 27.4736 198.785 27.4736C199.29 27.4736 199.704 27.3622 200.026 27.1415C200.349 26.9188 200.583 26.5847 200.728 26.1372ZM196.274 28.3687C196.156 28.3666 196.076 28.3876 196.032 28.4296C195.99 28.4738 195.969 28.5536 195.971 28.6713V34.5716C195.971 34.7733 196.072 34.8742 196.274 34.8742H196.804C196.93 34.8742 197.031 34.8237 197.107 34.7229L199.82 31.0289C199.965 30.8208 200.097 30.6212 200.215 30.43C200.335 30.2388 200.438 30.0518 200.526 29.869H200.564C200.495 30.1968 200.444 30.4994 200.41 30.7788C200.379 31.0562 200.362 31.3125 200.362 31.5458V34.5716C200.36 34.6892 200.381 34.7691 200.423 34.8132C200.467 34.8553 200.547 34.8763 200.665 34.8742H201.195C201.313 34.8763 201.393 34.8553 201.437 34.8132C201.479 34.7691 201.5 34.6892 201.498 34.5716V28.6713C201.5 28.5536 201.479 28.4738 201.437 28.4296C201.393 28.3876 201.313 28.3666 201.195 28.3687H200.665C200.602 28.3687 200.545 28.3813 200.497 28.4065C200.448 28.4317 200.406 28.4696 200.375 28.52L197.624 32.2518C197.346 32.6174 197.119 32.9957 196.943 33.3865H196.905C196.974 33.1154 197.025 32.8443 197.058 32.5712C197.09 32.3001 197.107 32.0249 197.107 31.7475V28.6713C197.109 28.5536 197.088 28.4738 197.046 28.4296C197.002 28.3876 196.922 28.3666 196.804 28.3687H196.274ZM207.693 28.3687C207.586 28.3666 207.51 28.3876 207.462 28.4296C207.413 28.4738 207.39 28.5536 207.39 28.6713V31.0289H204.198V28.6713C204.2 28.5536 204.179 28.4738 204.137 28.4296C204.093 28.3876 204.013 28.3666 203.895 28.3687H203.365C203.247 28.3666 203.167 28.3876 203.123 28.4296C203.081 28.4738 203.06 28.5536 203.062 28.6713V34.5716C203.062 34.7733 203.163 34.8742 203.365 34.8742H203.895C204.013 34.8763 204.093 34.8553 204.137 34.8132C204.179 34.7691 204.2 34.6892 204.198 34.5716V32.0753H207.39V34.5716C207.39 34.6892 207.413 34.7691 207.462 34.8132C207.51 34.8553 207.586 34.8763 207.693 34.8742H208.223C208.33 34.8763 208.406 34.8553 208.454 34.8132C208.503 34.7691 208.526 34.6892 208.526 34.5716V28.6713C208.526 28.5536 208.503 28.4738 208.454 28.4296C208.406 28.3876 208.33 28.3666 208.223 28.3687H207.693Z" fill="#140A32"/>
<path id="Vector_7" fill-rule="evenodd" clip-rule="evenodd" d="M12.6632 2.59711C11.9502 1.04728 10.952 0.272437 9.66855 0.189424C7.84313 0.189351 6.01785 0.189388 4.3636 0.189461C3.19435 1.57316 1.73979 3.39965 0 5.66891C2.3219 5.65159 4.83925 5.49367 7.41089 5.7733C9.4743 5.99768 11.1784 6.70145 12.4065 8.07657C12.5776 5.89033 12.6061 4.09143 12.6632 2.59711Z" fill="#115B82"/>
<path id="Vector_8" fill-rule="evenodd" clip-rule="evenodd" d="M12.6632 2.59711C11.9502 1.04728 10.952 0.272437 9.66855 0.189424C7.84313 0.189351 6.01785 0.189388 4.3636 0.189461C3.19435 1.57316 1.73979 3.39965 0 5.66891C2.3219 5.65159 4.83925 5.49367 7.41089 5.7733C9.4743 5.99768 11.1784 6.70145 12.4065 8.07657C12.5776 5.89033 12.6061 4.09143 12.6632 2.59711Z" fill="#115B82"/>
<path id="Vector_9" fill-rule="evenodd" clip-rule="evenodd" d="M5.29646 6.72772V24.0692H12.3841V9.68489C10.5257 7.45268 8.10576 6.8442 5.29646 6.72772Z" fill="#115B82"/>
<path id="Vector_10" fill-rule="evenodd" clip-rule="evenodd" d="M5.29646 6.72772V24.0692H12.3841V9.68489C10.5257 7.45268 8.10576 6.8442 5.29646 6.72772Z" fill="#115B82"/>
<path id="Vector_11" fill-rule="evenodd" clip-rule="evenodd" d="M29.0643 23.8346C25.8726 24.1027 22.2811 24.4926 19.3005 23.0338C17.6167 22.2098 16.2791 21.0443 15.3035 19.5376C13.2476 16.3623 12.903 9.12665 15.0695 5.18864C15.634 4.16235 16.4316 3.37826 17.3716 2.69399C19.7124 0.989133 22.861 0.091014 26.8172 0C22.6164 3.33025 20.8301 5.78521 20.5184 9.51188C20.3461 11.5724 20.21 15.4918 21.949 16.8951C22.3939 17.254 22.909 17.5588 23.4919 17.7637C26.4188 18.7924 31.1151 18.2388 33.8179 17.9624C32.0607 20.8984 30.2455 22.9135 29.0643 23.8346Z" fill="#115B82"/>
<path id="Vector_12" fill-rule="evenodd" clip-rule="evenodd" d="M29.0643 23.8346C25.8726 24.1027 22.2811 24.4926 19.3005 23.0338C17.6167 22.2098 16.2791 21.0443 15.3035 19.5376C13.2476 16.3623 12.903 9.12665 15.0695 5.18864C15.634 4.16235 16.4316 3.37826 17.3716 2.69399C19.7124 0.989133 22.861 0.091014 26.8172 0C22.6164 3.33025 20.8301 5.78521 20.5184 9.51188C20.3461 11.5724 20.21 15.4918 21.949 16.8951C22.3939 17.254 22.909 17.5588 23.4919 17.7637C26.4188 18.7924 31.1151 18.2388 33.8179 17.9624C32.0607 20.8984 30.2455 22.9135 29.0643 23.8346Z" fill="#115B82"/>
<path id="Vector_13" fill-rule="evenodd" clip-rule="evenodd" d="M51.3827 0.385273C54.5744 0.117202 58.1658 -0.272759 61.1465 1.18606C62.8305 2.01015 64.1678 3.17557 65.1434 4.68229C67.1993 7.85767 67.5441 15.0933 65.3775 19.0313C64.8128 20.0576 64.0153 20.8416 63.0755 21.5259C60.7347 23.2308 57.5858 24.1289 53.6298 24.2199C57.8308 20.8897 59.6168 18.4347 59.9288 14.708C60.101 12.6475 60.237 8.72813 58.4978 7.32479C58.0532 6.96588 57.5379 6.66111 56.955 6.4562C54.0281 5.42753 49.332 5.98116 46.6292 6.2575C48.3863 3.32154 50.2016 1.30637 51.3827 0.385273Z" fill="#115B82"/>
<path id="Vector_14" fill-rule="evenodd" clip-rule="evenodd" d="M51.3827 0.385273C54.5744 0.117202 58.1658 -0.272759 61.1465 1.18606C62.8305 2.01015 64.1678 3.17557 65.1434 4.68229C67.1993 7.85767 67.5441 15.0933 65.3775 19.0313C64.8128 20.0576 64.0153 20.8416 63.0755 21.5259C60.7347 23.2308 57.5858 24.1289 53.6298 24.2199C57.8308 20.8897 59.6168 18.4347 59.9288 14.708C60.101 12.6475 60.237 8.72813 58.4978 7.32479C58.0532 6.96588 57.5379 6.66111 56.955 6.4562C54.0281 5.42753 49.332 5.98116 46.6292 6.2575C48.3863 3.32154 50.2016 1.30637 51.3827 0.385273Z" fill="#115B82"/>
<path id="Vector_15" fill-rule="evenodd" clip-rule="evenodd" d="M30.5336 24.0075C33.8901 21.2076 35.9937 18.1083 36.4916 13.9975C36.6387 12.7842 36.6189 11.5569 36.7356 10.3397C36.9634 7.96301 37.547 5.56861 39.3393 3.7578C41.5228 1.55149 44.7817 0.442513 49.6344 0.0863495C45.6312 3.67233 44.1641 6.60023 43.5808 11.1483C43.4393 12.2535 43.4126 13.374 43.2312 14.4729C42.2102 20.6526 37.1291 24.2757 30.5336 24.0075Z" fill="#115B82"/>
<path id="Vector_16" fill-rule="evenodd" clip-rule="evenodd" d="M30.5336 24.0075C33.8901 21.2076 35.9937 18.1083 36.4916 13.9975C36.6387 12.7842 36.6189 11.5569 36.7356 10.3397C36.9634 7.96301 37.547 5.56861 39.3393 3.7578C41.5228 1.55149 44.7817 0.442513 49.6344 0.0863495C45.6312 3.67233 44.1641 6.60023 43.5808 11.1483C43.4393 12.2535 43.4126 13.374 43.2312 14.4729C42.2102 20.6526 37.1291 24.2757 30.5336 24.0075Z" fill="#115B82"/>
<path id="Vector_17" fill-rule="evenodd" clip-rule="evenodd" d="M35.4826 7.88387C34.4214 7.02927 33.4886 6.61302 32.4771 6.3582C29.5866 5.63003 26.1922 6.05336 23.0766 6.14972C24.8121 3.08824 26.6119 1.16142 28.4118 0.176603C29.9133 0.124392 31.3273 0.127863 32.6684 0.201522C34.2233 0.286909 35.4856 0.463456 36.9276 1.05857C37.8677 1.44671 38.4576 1.81639 38.6967 2.16766C36.9181 3.85897 35.8469 5.78579 35.4826 7.88387Z" fill="#115B82"/>
<path id="Vector_18" fill-rule="evenodd" clip-rule="evenodd" d="M35.4826 7.88387C34.4214 7.02927 33.4886 6.61302 32.4771 6.3582C29.5866 5.63003 26.1922 6.05336 23.0766 6.14972C24.8121 3.08824 26.6119 1.16142 28.4118 0.176603C29.9133 0.124392 31.3273 0.127863 32.6684 0.201522C34.2233 0.286909 35.4856 0.463456 36.9276 1.05857C37.8677 1.44671 38.4576 1.81639 38.6967 2.16766C36.9181 3.85897 35.8469 5.78579 35.4826 7.88387Z" fill="#115B82"/>
<path id="Vector_19" fill-rule="evenodd" clip-rule="evenodd" d="M44.1703 16.336C45.26 17.1906 46.2178 17.6069 47.2563 17.8617C50.2242 18.5899 53.7095 18.1665 56.9086 18.0702C55.1266 21.1317 53.2784 23.0585 51.4306 24.0433C49.8889 24.0955 48.4367 24.092 47.0599 24.0184C45.4634 23.933 44.1674 23.7564 42.6867 23.1613C41.7213 22.7732 41.1157 22.4035 40.8704 22.0522C42.6962 20.3609 43.7962 18.4341 44.1703 16.336Z" fill="#115B82"/>
<path id="Vector_20" fill-rule="evenodd" clip-rule="evenodd" d="M44.1703 16.336C45.26 17.1906 46.2178 17.6069 47.2563 17.8617C50.2242 18.5899 53.7095 18.1665 56.9086 18.0702C55.1266 21.1317 53.2784 23.0585 51.4306 24.0433C49.8889 24.0955 48.4367 24.092 47.0599 24.0184C45.4634 23.933 44.1674 23.7564 42.6867 23.1613C41.7213 22.7732 41.1157 22.4035 40.8704 22.0522C42.6962 20.3609 43.7962 18.4341 44.1703 16.336Z" fill="#115B82"/>
</g>
<defs>
<clipPath id="clip0_2_2">
<rect width="211" height="38" fill="white"/>
</clipPath>
</defs>
</svg>
