<svg width="50" height="50" viewBox="0 0 50 50" fill="none" xmlns="http://www.w3.org/2000/svg">
<rect width="50" height="50" rx="25" fill="#115B82"/>
<path fill-rule="evenodd" clip-rule="evenodd" d="M25 25.75C21.5482 25.75 18.75 28.5482 18.75 32V33C18.75 33.4142 18.4142 33.75 18 33.75C17.5858 33.75 17.25 33.4142 17.25 33V32C17.25 27.7198 20.7198 24.25 25 24.25C29.2802 24.25 32.75 27.7198 32.75 32V33C32.75 33.4142 32.4142 33.75 32 33.75C31.5858 33.75 31.25 33.4142 31.25 33V32C31.25 28.5482 28.4518 25.75 25 25.75Z" fill="white"/>
<path fill-rule="evenodd" clip-rule="evenodd" d="M25 17.75C23.2051 17.75 21.75 19.2051 21.75 21C21.75 22.7949 23.2051 24.25 25 24.25C26.7949 24.25 28.25 22.7949 28.25 21C28.25 19.2051 26.7949 17.75 25 17.75ZM20.25 21C20.25 18.3766 22.3766 16.25 25 16.25C27.6234 16.25 29.75 18.3766 29.75 21C29.75 23.6234 27.6234 25.75 25 25.75C22.3766 25.75 20.25 23.6234 20.25 21Z" fill="white"/>
</svg>
