<svg width="24" height="25" viewBox="0 0 24 25" fill="none" xmlns="http://www.w3.org/2000/svg">
<path fill-rule="evenodd" clip-rule="evenodd" d="M2.36004 10.391C2.14405 10.0375 2.25547 9.57592 2.60891 9.35993L11.6089 3.85993C11.849 3.71321 12.151 3.71321 12.3911 3.85993L21.3911 9.35993C21.7445 9.57592 21.856 10.0375 21.64 10.391C21.424 10.7444 20.9624 10.8558 20.6089 10.6399L12 5.37885L3.39109 10.6399C3.03765 10.8558 2.57603 10.7444 2.36004 10.391Z" fill="#33836E"/>
<path fill-rule="evenodd" clip-rule="evenodd" d="M4.25 20.5C4.25 20.0858 4.58579 19.75 5 19.75H19C19.4142 19.75 19.75 20.0858 19.75 20.5C19.75 20.9142 19.4142 21.25 19 21.25H5C4.58579 21.25 4.25 20.9142 4.25 20.5Z" fill="#33836E"/>
<path fill-rule="evenodd" clip-rule="evenodd" d="M9.25 9.5C9.25 9.08579 9.58579 8.75 10 8.75L14 8.75C14.4142 8.75 14.75 9.08579 14.75 9.5C14.75 9.91421 14.4142 10.25 14 10.25L10 10.25C9.58579 10.25 9.25 9.91421 9.25 9.5Z" fill="#33836E"/>
<path fill-rule="evenodd" clip-rule="evenodd" d="M6 11.75C6.41421 11.75 6.75 12.0858 6.75 12.5L6.75 17.5C6.75 17.9142 6.41421 18.25 6 18.25C5.58579 18.25 5.25 17.9142 5.25 17.5L5.25 12.5C5.25 12.0858 5.58579 11.75 6 11.75Z" fill="#33836E"/>
<path fill-rule="evenodd" clip-rule="evenodd" d="M10 11.75C10.4142 11.75 10.75 12.0858 10.75 12.5L10.75 17.5C10.75 17.9142 10.4142 18.25 10 18.25C9.58579 18.25 9.25 17.9142 9.25 17.5L9.25 12.5C9.25 12.0858 9.58579 11.75 10 11.75Z" fill="#33836E"/>
<path fill-rule="evenodd" clip-rule="evenodd" d="M14 11.75C14.4142 11.75 14.75 12.0858 14.75 12.5L14.75 17.5C14.75 17.9142 14.4142 18.25 14 18.25C13.5858 18.25 13.25 17.9142 13.25 17.5L13.25 12.5C13.25 12.0858 13.5858 11.75 14 11.75Z" fill="#33836E"/>
<path fill-rule="evenodd" clip-rule="evenodd" d="M18 11.75C18.4142 11.75 18.75 12.0858 18.75 12.5L18.75 17.5C18.75 17.9142 18.4142 18.25 18 18.25C17.5858 18.25 17.25 17.9142 17.25 17.5L17.25 12.5C17.25 12.0858 17.5858 11.75 18 11.75Z" fill="#33836E"/>
</svg>
