<svg width="24" height="24" viewBox="0 0 24 24" fill="none" xmlns="http://www.w3.org/2000/svg">
<g id="building">
<path id="Vector (Stroke)" fill-rule="evenodd" clip-rule="evenodd" d="M10.5117 8.44144C10.8196 8.71853 10.8446 9.19275 10.5675 9.50063L10.5575 9.51174C10.2804 9.81963 9.80616 9.84458 9.49828 9.56749C9.1904 9.29039 9.16544 8.81618 9.44254 8.5083L9.45254 8.49718C9.72963 8.1893 10.2038 8.16434 10.5117 8.44144Z" fill="#33836E"/>
<path id="Vector (Stroke)_2" fill-rule="evenodd" clip-rule="evenodd" d="M14.5117 8.44144C14.8196 8.71853 14.8446 9.19275 14.5675 9.50063L14.5575 9.51174C14.2804 9.81963 13.8062 9.84458 13.4983 9.56749C13.1904 9.29039 13.1654 8.81618 13.4425 8.5083L13.4525 8.49718C13.7296 8.1893 14.2038 8.16434 14.5117 8.44144Z" fill="#33836E"/>
<path id="Vector (Stroke)_3" fill-rule="evenodd" clip-rule="evenodd" d="M10.5117 12.4414C10.8196 12.7185 10.8446 13.1927 10.5675 13.5006L10.5575 13.5117C10.2804 13.8196 9.80616 13.8446 9.49828 13.5675C9.1904 13.2904 9.16544 12.8162 9.44254 12.5083L9.45254 12.4972C9.72963 12.1893 10.2038 12.1643 10.5117 12.4414Z" fill="#33836E"/>
<path id="Vector (Stroke)_4" fill-rule="evenodd" clip-rule="evenodd" d="M14.5117 12.4414C14.8196 12.7185 14.8446 13.1927 14.5675 13.5006L14.5575 13.5117C14.2804 13.8196 13.8062 13.8446 13.4983 13.5675C13.1904 13.2904 13.1654 12.8162 13.4425 12.5083L13.4525 12.4972C13.7296 12.1893 14.2038 12.1643 14.5117 12.4414Z" fill="#33836E"/>
<path id="Vector (Stroke)_5" fill-rule="evenodd" clip-rule="evenodd" d="M10.5117 16.4414C10.8196 16.7185 10.8446 17.1927 10.5675 17.5006L10.5575 17.5117C10.2804 17.8196 9.80616 17.8446 9.49828 17.5675C9.1904 17.2904 9.16544 16.8162 9.44254 16.5083L9.45254 16.4972C9.72963 16.1893 10.2038 16.1643 10.5117 16.4414Z" fill="#33836E"/>
<path id="Vector (Stroke)_6" fill-rule="evenodd" clip-rule="evenodd" d="M14.5117 16.4414C14.8196 16.7185 14.8446 17.1927 14.5675 17.5006L14.5575 17.5117C14.2804 17.8196 13.8062 17.8446 13.4983 17.5675C13.1904 17.2904 13.1654 16.8162 13.4425 16.5083L13.4525 16.4972C13.7296 16.1893 14.2038 16.1643 14.5117 16.4414Z" fill="#33836E"/>
<path id="Vector (Stroke)_7" fill-rule="evenodd" clip-rule="evenodd" d="M18.75 20.4C18.75 21.1456 18.1456 21.75 17.4 21.75H6.6C5.85441 21.75 5.25 21.1456 5.25 20.4V5.6C5.25 4.85442 5.85441 4.25 6.6 4.25H11.25V3.6C11.25 2.85442 11.8544 2.25 12.6 2.25H17.4C18.1456 2.25 18.75 2.85442 18.75 3.6V20.4ZM17.25 20.25V3.75H12.75V5C12.75 5.41421 12.4142 5.75 12 5.75H6.75V20.25H17.25Z" fill="#33836E"/>
</g>
</svg>
