<svg width="24" height="25" viewBox="0 0 24 25" fill="none" xmlns="http://www.w3.org/2000/svg">
<path fill-rule="evenodd" clip-rule="evenodd" d="M7.51173 8.94132C7.81961 9.21841 7.84457 9.69263 7.56748 10.0005L7.55748 10.0116C7.28038 10.3195 6.80616 10.3445 6.49828 10.0674C6.1904 9.79027 6.16544 9.31606 6.44254 9.00817L6.45254 8.99706C6.72963 8.68918 7.20385 8.66422 7.51173 8.94132Z" fill="#33836E"/>
<path fill-rule="evenodd" clip-rule="evenodd" d="M11.5117 8.94132C11.8196 9.21841 11.8446 9.69263 11.5675 10.0005L11.5575 10.0116C11.2804 10.3195 10.8062 10.3445 10.4983 10.0674C10.1904 9.79027 10.1654 9.31606 10.4425 9.00817L10.4525 8.99706C10.7296 8.68918 11.2038 8.66422 11.5117 8.94132Z" fill="#33836E"/>
<path fill-rule="evenodd" clip-rule="evenodd" d="M7.51173 12.9413C7.81961 13.2184 7.84457 13.6926 7.56748 14.0005L7.55748 14.0116C7.28038 14.3195 6.80616 14.3445 6.49828 14.0674C6.1904 13.7903 6.16544 13.3161 6.44254 13.0082L6.45254 12.9971C6.72963 12.6892 7.20385 12.6642 7.51173 12.9413Z" fill="#33836E"/>
<path fill-rule="evenodd" clip-rule="evenodd" d="M11.5117 12.9413C11.8196 13.2184 11.8446 13.6926 11.5675 14.0005L11.5575 14.0116C11.2804 14.3195 10.8062 14.3445 10.4983 14.0674C10.1904 13.7903 10.1654 13.3161 10.4425 13.0082L10.4525 12.9971C10.7296 12.6892 11.2038 12.6642 11.5117 12.9413Z" fill="#33836E"/>
<path fill-rule="evenodd" clip-rule="evenodd" d="M7.51173 16.9413C7.81961 17.2184 7.84457 17.6926 7.56748 18.0005L7.55748 18.0116C7.28038 18.3195 6.80616 18.3445 6.49828 18.0674C6.1904 17.7903 6.16544 17.3161 6.44254 17.0082L6.45254 16.9971C6.72963 16.6892 7.20385 16.6642 7.51173 16.9413Z" fill="#33836E"/>
<path fill-rule="evenodd" clip-rule="evenodd" d="M11.5117 16.9413C11.8196 17.2184 11.8446 17.6926 11.5675 18.0005L11.5575 18.0116C11.2804 18.3195 10.8062 18.3445 10.4983 18.0674C10.1904 17.7903 10.1654 17.3161 10.4425 17.0082L10.4525 16.9971C10.7296 16.6892 11.2038 16.6642 11.5117 16.9413Z" fill="#33836E"/>
<path fill-rule="evenodd" clip-rule="evenodd" d="M20.25 20.75V10.25H15.75V12.75H17C17.4142 12.75 17.75 13.0858 17.75 13.5C17.75 13.9142 17.4142 14.25 17 14.25H15.75V16.75H17C17.4142 16.75 17.75 17.0858 17.75 17.5C17.75 17.9142 17.4142 18.25 17 18.25H15.75V20.75H20.25ZM14.25 20.75V4.25H9.75V5.5C9.75 5.91421 9.41421 6.25 9 6.25H3.75V20.75H14.25ZM15.75 8.75H20.4C21.1456 8.75 21.75 9.35442 21.75 10.1V20.9C21.75 21.6456 21.1456 22.25 20.4 22.25H3.6C2.85442 22.25 2.25 21.6456 2.25 20.9V6.1C2.25 5.35442 2.85442 4.75 3.6 4.75H8.25V4.1C8.25 3.35442 8.85442 2.75 9.6 2.75H14.4C15.1456 2.75 15.75 3.35442 15.75 4.1V8.75Z" fill="#33836E"/>
</svg>
