<svg width="62" height="62" viewBox="0 0 62 62" fill="none" xmlns="http://www.w3.org/2000/svg">
<rect width="62" height="62" rx="31" fill="white"/>
<path d="M22.5234 30.6641H25.6484V32.0547H22.5234V35.2109H21.1328V32.0547H18.0156V30.6641H21.1328V27.4766H22.5234V30.6641ZM31.0234 29.8594C31.7578 29.8594 32.4036 29.9922 32.9609 30.2578C33.5234 30.5182 33.9609 30.9036 34.2734 31.4141C34.5859 31.9193 34.7422 32.5391 34.7422 33.2734C34.7422 34.0755 34.5729 34.7682 34.2344 35.3516C33.8958 35.9297 33.3984 36.375 32.7422 36.6875C32.0859 37 31.2865 37.1562 30.3438 37.1562C29.7448 37.1562 29.1849 37.1042 28.6641 37C28.1484 36.8958 27.7031 36.7396 27.3281 36.5312V34.875C27.7188 35.0938 28.1875 35.2734 28.7344 35.4141C29.2812 35.5495 29.8047 35.6172 30.3047 35.6172C30.8359 35.6172 31.2917 35.5391 31.6719 35.3828C32.0521 35.2266 32.3438 34.987 32.5469 34.6641C32.7552 34.3411 32.8594 33.9323 32.8594 33.4375C32.8594 32.7812 32.6484 32.276 32.2266 31.9219C31.8099 31.5625 31.1562 31.3828 30.2656 31.3828C29.9531 31.3828 29.6198 31.4115 29.2656 31.4688C28.9167 31.5208 28.625 31.5781 28.3906 31.6406L27.5859 31.1641L28.0156 25.5781H33.9531V27.1953H29.6328L29.3828 30.0391C29.5703 29.9974 29.7943 29.9583 30.0547 29.9219C30.3151 29.8802 30.638 29.8594 31.0234 29.8594ZM44.0156 30.4453C44.0156 31.1224 43.9661 31.7865 43.8672 32.4375C43.7734 33.0885 43.6068 33.6979 43.3672 34.2656C43.1328 34.8333 42.8073 35.3359 42.3906 35.7734C41.9792 36.2057 41.4583 36.5443 40.8281 36.7891C40.1979 37.0339 39.4375 37.1562 38.5469 37.1562C38.3229 37.1562 38.0625 37.1432 37.7656 37.1172C37.474 37.0964 37.2344 37.0651 37.0469 37.0234V35.4922C37.2448 35.5495 37.4661 35.5964 37.7109 35.6328C37.9609 35.6641 38.2083 35.6797 38.4531 35.6797C39.4167 35.6797 40.1667 35.5 40.7031 35.1406C41.2448 34.7812 41.6276 34.2865 41.8516 33.6562C42.0807 33.026 42.2109 32.3099 42.2422 31.5078H42.1484C41.9974 31.7578 41.8073 31.987 41.5781 32.1953C41.349 32.3984 41.0651 32.5625 40.7266 32.6875C40.388 32.8073 39.9766 32.8672 39.4922 32.8672C38.8359 32.8672 38.263 32.7292 37.7734 32.4531C37.2891 32.1771 36.9115 31.776 36.6406 31.25C36.375 30.7188 36.2422 30.0807 36.2422 29.3359C36.2422 28.5286 36.3958 27.8333 36.7031 27.25C37.0104 26.6667 37.4453 26.2188 38.0078 25.9062C38.5703 25.5885 39.2318 25.4297 39.9922 25.4297C40.5651 25.4297 41.0938 25.5339 41.5781 25.7422C42.0677 25.9453 42.4948 26.2578 42.8594 26.6797C43.224 27.0964 43.5078 27.6198 43.7109 28.25C43.9141 28.875 44.0156 29.6068 44.0156 30.4453ZM40.0156 26.9453C39.4375 26.9453 38.9661 27.1406 38.6016 27.5312C38.237 27.9167 38.0547 28.5104 38.0547 29.3125C38.0547 29.9635 38.2109 30.4792 38.5234 30.8594C38.8359 31.2396 39.3151 31.4297 39.9609 31.4297C40.4089 31.4297 40.7943 31.3385 41.1172 31.1562C41.4453 30.9688 41.6979 30.7318 41.875 30.4453C42.0573 30.1589 42.1484 29.8672 42.1484 29.5703C42.1484 29.263 42.1042 28.9557 42.0156 28.6484C41.9323 28.3411 41.8021 28.0599 41.625 27.8047C41.4479 27.5495 41.224 27.3438 40.9531 27.1875C40.6875 27.026 40.375 26.9453 40.0156 26.9453Z" fill="#2F2B43" fill-opacity="0.5"/>
</svg>
