<svg width="24" height="24" viewBox="0 0 24 24" fill="none" xmlns="http://www.w3.org/2000/svg">
<g id="flash">
<path id="Vector (Stroke)" fill-rule="evenodd" clip-rule="evenodd" d="M4.33167 14.3403C4.45967 14.5917 4.71791 14.75 5 14.75H10.25V21C10.25 21.3248 10.4591 21.6128 10.7681 21.7132C11.077 21.8137 11.4155 21.7038 11.6066 21.4411L19.6066 10.4411C19.7725 10.213 19.7963 9.91103 19.6683 9.65966C19.5403 9.40828 19.2821 9.24999 19 9.24999H13.75V2.99999C13.75 2.67514 13.5409 2.38721 13.2319 2.28675C12.923 2.18629 12.5845 2.29614 12.3935 2.55886L4.39345 13.5589C4.22753 13.787 4.20366 14.0889 4.33167 14.3403ZM12.25 5.30638V9.99999C12.25 10.4142 12.5858 10.75 13 10.75H17.5272L11.75 18.6936V14C11.75 13.5858 11.4142 13.25 11 13.25H6.47283L12.25 5.30638Z" fill="#33836E"/>
</g>
</svg>
