<svg width="24" height="25" viewBox="0 0 24 25" fill="none" xmlns="http://www.w3.org/2000/svg">
<path fill-rule="evenodd" clip-rule="evenodd" d="M0.25 4.5C0.25 4.08579 0.585786 3.75 1 3.75H19C19.4142 3.75 19.75 4.08579 19.75 4.5C19.75 4.91421 19.4142 5.25 19 5.25H1.75V16.5C1.75 16.9142 1.41421 17.25 1 17.25C0.585786 17.25 0.25 16.9142 0.25 16.5V4.5Z" fill="#33836E"/>
<path fill-rule="evenodd" clip-rule="evenodd" d="M5.75 9.25V19.75H11.25V9.25H5.75ZM12.75 9.25V19.75H15.25V9.25H12.75ZM16.75 9.25V19.75H22.25V9.25H16.75ZM4.25 9.1C4.25 8.35442 4.85442 7.75 5.6 7.75H22.4C23.1456 7.75 23.75 8.35442 23.75 9.1V19.9C23.75 20.6456 23.1456 21.25 22.4 21.25H5.6C4.85442 21.25 4.25 20.6456 4.25 19.9V9.1Z" fill="#33836E"/>
</svg>
