<svg width="24" height="25" viewBox="0 0 24 25" fill="none" xmlns="http://www.w3.org/2000/svg">
<path fill-rule="evenodd" clip-rule="evenodd" d="M8 13.25C4.54822 13.25 1.75 16.0482 1.75 19.5V20.5C1.75 20.9142 1.41421 21.25 1 21.25C0.585786 21.25 0.25 20.9142 0.25 20.5V19.5C0.25 15.2198 3.71979 11.75 8 11.75C12.2802 11.75 15.75 15.2198 15.75 19.5V20.5C15.75 20.9142 15.4142 21.25 15 21.25C14.5858 21.25 14.25 20.9142 14.25 20.5V19.5C14.25 16.0482 11.4518 13.25 8 13.25Z" fill="#33836E"/>
<path fill-rule="evenodd" clip-rule="evenodd" d="M18 10.25C15.6528 10.25 13.75 12.1528 13.75 14.5H12.25C12.25 11.3244 14.8244 8.75 18 8.75C21.1756 8.75 23.75 11.3244 23.75 14.5V15C23.75 15.4142 23.4142 15.75 23 15.75C22.5858 15.75 22.25 15.4142 22.25 15V14.5C22.25 12.1528 20.3472 10.25 18 10.25Z" fill="#33836E"/>
<path fill-rule="evenodd" clip-rule="evenodd" d="M8 5.25C6.20507 5.25 4.75 6.70507 4.75 8.5C4.75 10.2949 6.20507 11.75 8 11.75C9.79493 11.75 11.25 10.2949 11.25 8.5C11.25 6.70507 9.79493 5.25 8 5.25ZM3.25 8.5C3.25 5.87665 5.37665 3.75 8 3.75C10.6234 3.75 12.75 5.87665 12.75 8.5C12.75 11.1234 10.6234 13.25 8 13.25C5.37665 13.25 3.25 11.1234 3.25 8.5Z" fill="#33836E"/>
<path fill-rule="evenodd" clip-rule="evenodd" d="M18 4.25C16.7574 4.25 15.75 5.25736 15.75 6.5C15.75 7.74264 16.7574 8.75 18 8.75C19.2426 8.75 20.25 7.74264 20.25 6.5C20.25 5.25736 19.2426 4.25 18 4.25ZM14.25 6.5C14.25 4.42893 15.9289 2.75 18 2.75C20.0711 2.75 21.75 4.42893 21.75 6.5C21.75 8.57107 20.0711 10.25 18 10.25C15.9289 10.25 14.25 8.57107 14.25 6.5Z" fill="#33836E"/>
</svg>
