<svg width="24" height="24" viewBox="0 0 24 24" fill="none" xmlns="http://www.w3.org/2000/svg">
<g id="reply">
<path id="Vector (Stroke)" fill-rule="evenodd" clip-rule="evenodd" d="M9.53033 2.46967C9.82322 2.76256 9.82322 3.23744 9.53033 3.53033L3.81066 9.25H16C18.1818 9.25 19.8831 10.0053 21.0384 11.1966C22.1852 12.3792 22.75 13.9466 22.75 15.5C22.75 17.0534 22.1852 18.6208 21.0384 19.8034C19.8831 20.9947 18.1818 21.75 16 21.75C15.5858 21.75 15.25 21.4142 15.25 21C15.25 20.5858 15.5858 20.25 16 20.25C17.8182 20.25 19.1169 19.6302 19.9616 18.7591C20.8148 17.8792 21.25 16.6966 21.25 15.5C21.25 14.3034 20.8148 13.1208 19.9616 12.2409C19.1169 11.3697 17.8182 10.75 16 10.75H3.81066L9.53033 16.4697C9.82322 16.7626 9.82322 17.2374 9.53033 17.5303C9.23744 17.8232 8.76256 17.8232 8.46967 17.5303L1.46967 10.5303C1.17678 10.2374 1.17678 9.76256 1.46967 9.46967L8.46967 2.46967C8.76256 2.17678 9.23744 2.17678 9.53033 2.46967Z" fill="#33836E"/>
</g>
</svg>
