<svg width="24" height="25" viewBox="0 0 24 25" fill="none" xmlns="http://www.w3.org/2000/svg">
<path fill-rule="evenodd" clip-rule="evenodd" d="M11.5 4.25C7.21979 4.25 3.75 7.71979 3.75 12C3.75 13.5079 4.1799 14.9131 4.92348 16.1024C5.14308 16.4536 5.03638 16.9163 4.68516 17.1359C4.33395 17.3555 3.87122 17.2488 3.65162 16.8976C2.7633 15.4768 2.25 13.7972 2.25 12C2.25 6.89137 6.39137 2.75 11.5 2.75C11.9142 2.75 12.25 3.08579 12.25 3.5C12.25 3.91421 11.9142 4.25 11.5 4.25Z" fill="#33836E"/>
<path fill-rule="evenodd" clip-rule="evenodd" d="M19.25 10C19.25 9.58579 19.5858 9.25 20 9.25H22.5C22.9142 9.25 23.25 9.58579 23.25 10C23.25 10.4142 22.9142 10.75 22.5 10.75H20.75V12C20.75 13.7972 20.2367 15.4768 19.3484 16.8976C19.1288 17.2488 18.6661 17.3555 18.3148 17.1359C17.9636 16.9163 17.8569 16.4536 18.0765 16.1024C18.8201 14.9131 19.25 13.5079 19.25 12V10Z" fill="#33836E"/>
<path fill-rule="evenodd" clip-rule="evenodd" d="M8 18.25C8.69036 18.25 9.25 18.8096 9.25 19.5C9.25 20.1904 8.69036 20.75 8 20.75C7.30964 20.75 6.75 20.1904 6.75 19.5C6.75 18.8096 7.30964 18.25 8 18.25ZM10.75 19.5C10.75 17.9812 9.51878 16.75 8 16.75C6.48122 16.75 5.25 17.9812 5.25 19.5C5.25 21.0188 6.48122 22.25 8 22.25C9.51878 22.25 10.75 21.0188 10.75 19.5Z" fill="#33836E"/>
<path fill-rule="evenodd" clip-rule="evenodd" d="M15 18.25C15.6904 18.25 16.25 18.8096 16.25 19.5C16.25 20.1904 15.6904 20.75 15 20.75C14.3096 20.75 13.75 20.1904 13.75 19.5C13.75 18.8096 14.3096 18.25 15 18.25ZM17.75 19.5C17.75 17.9812 16.5188 16.75 15 16.75C13.4812 16.75 12.25 17.9812 12.25 19.5C12.25 21.0188 13.4812 22.25 15 22.25C16.5188 22.25 17.75 21.0188 17.75 19.5Z" fill="#33836E"/>
<path fill-rule="evenodd" clip-rule="evenodd" d="M11.5 2.75C11.9142 2.75 12.25 3.08579 12.25 3.5V12.5C12.25 12.9142 11.9142 13.25 11.5 13.25C11.0858 13.25 10.75 12.9142 10.75 12.5V3.5C10.75 3.08579 11.0858 2.75 11.5 2.75Z" fill="#33836E"/>
<path fill-rule="evenodd" clip-rule="evenodd" d="M2.75 12.5C2.75 12.0858 3.08579 11.75 3.5 11.75H19.5C19.9142 11.75 20.25 12.0858 20.25 12.5C20.25 12.9142 19.9142 13.25 19.5 13.25H3.5C3.08579 13.25 2.75 12.9142 2.75 12.5Z" fill="#33836E"/>
</svg>
