<svg width="40" height="40" viewBox="0 0 40 40" fill="none" xmlns="http://www.w3.org/2000/svg">
<path d="M3.32135 36.758V3.24203C3.32135 1.92609 4.38815 0.859375 5.70401 0.859375H36.6785V34.3753H5.70401C4.38815 34.3753 3.32135 35.4421 3.32135 36.758ZM3.32135 36.758C3.32135 38.0739 4.38807 39.1406 5.70401 39.1406H36.6785M34.2959 34.3753V39.1406M8.08666 0.859375V34.3753" stroke="#33836E" stroke-width="1.71875" stroke-miterlimit="10" stroke-linecap="round" stroke-linejoin="round"/>
<path d="M22.3826 10.4694V27.148M12.852 12.8521H31.9132M17.6173 27.148H27.1479M15.2346 12.8521L12.852 17.6174C12.852 18.9333 13.9187 20.0001 15.2346 20.0001C16.5506 20.0001 17.6173 18.9333 17.6173 17.6174L15.2346 12.8521ZM29.5306 12.8521L31.9132 17.6174C31.9132 18.9333 30.8465 20.0001 29.5306 20.0001C28.2146 20.0001 27.1479 18.9333 27.1479 17.6174L29.5306 12.8521Z" stroke="#33836E" stroke-width="1.71875" stroke-miterlimit="10" stroke-linecap="round" stroke-linejoin="round"/>
</svg>
