<svg width="40" height="40" viewBox="0 0 40 40" fill="none" xmlns="http://www.w3.org/2000/svg">
<g clip-path="url(#clip0_41_164)">
<path d="M28.1197 40C14.2187 39.8386 -3.19055 21.9843 0.549667 7.92686C1.30733 3.80571 8.61374 -3.30409 13.3645 1.74345C15.2533 3.74455 17.6859 5.30292 17.6233 8.39732C17.637 10.3494 16.7046 11.8588 15.2927 13.123C13.6939 14.7218 13.546 17.2648 14.9486 19.0382C16.6756 21.2238 18.7415 23.2894 20.9273 25.0171C22.7008 26.4195 25.2437 26.2717 26.8426 24.6728L27.4897 24.0259C28.5753 22.9403 30.0237 22.3423 31.5684 22.3423C34.659 22.2777 36.2269 24.717 38.2224 26.6011C43.2623 31.3946 36.1777 38.6305 32.0389 39.4159C30.8315 39.8059 29.5174 40 28.1197 40ZM9.42545 1.71759C6.54413 1.60449 2.70136 5.78626 2.23653 8.2593C-0.791011 19.7836 11.2611 33.0438 21.6296 36.9673C26.6773 38.7724 31.3065 39.028 35.118 35.8226C37.6587 33.6474 39.6198 30.4226 37.0073 27.8163L34.4319 25.2411C32.9333 23.6776 30.2031 23.678 28.7048 25.2412L28.0576 25.8882C25.8424 28.1035 22.3186 28.3085 19.8612 26.365C18.7166 25.4596 17.6028 24.4671 16.5507 23.415C15.4981 22.3624 14.5056 21.2485 13.6007 20.1043C11.6572 17.6471 11.8622 14.1235 14.0775 11.908L14.7246 11.2609C16.2881 9.76362 16.2876 7.03125 14.7246 5.53381L12.1492 2.95845C11.32 2.12915 10.4206 1.71759 9.42545 1.71759Z" fill="#33836E"/>
<path d="M32.1924 15.9197C31.796 15.9197 31.4396 15.6438 31.3531 15.2405C31.0054 13.6143 30.1941 12.1235 29.0174 10.9483C27.8255 9.75433 26.3089 8.93702 24.6562 8.59798C24.1914 8.50221 23.8923 8.04785 23.9879 7.58309C24.0838 7.11834 24.5381 6.81918 25.0028 6.91494C26.9898 7.32416 28.7982 8.29874 30.2325 9.73315C31.6436 11.1424 32.6163 12.93 33.0333 14.8802C33.1328 15.3441 32.8374 15.801 32.3734 15.9005C32.3127 15.9134 32.2521 15.9197 32.1924 15.9197Z" fill="#33836E"/>
<path d="M37.0463 20.7471C36.9903 20.7471 36.9334 20.7416 36.8763 20.7301C36.4111 20.6367 36.1097 20.1838 36.2031 19.7186C37.0981 15.2615 35.7132 10.6815 32.4987 7.4669C29.2783 4.2465 24.6907 2.8631 20.2269 3.7666C19.7616 3.86119 19.3084 3.56 19.2143 3.09485C19.1202 2.62979 19.4209 2.17644 19.886 2.08231C24.916 1.06423 30.0851 2.62299 33.7139 6.25174C37.3359 9.87393 38.8963 15.0347 37.8879 20.0567C37.8059 20.465 37.4472 20.7471 37.0463 20.7471Z" fill="#33836E"/>
</g>
<defs>
<clipPath id="clip0_41_164">
<rect width="40" height="40" fill="white"/>
</clipPath>
</defs>
</svg>
