<svg width="24" height="24" viewBox="0 0 24 24" fill="none" xmlns="http://www.w3.org/2000/svg">
<g id="telegram">
<path id="Vector" fill-rule="evenodd" clip-rule="evenodd" d="M3.27053 11.4346C8.23172 9.27314 11.54 7.84814 13.1952 7.15965C17.9214 5.19388 18.9035 4.8524 19.5436 4.84112C19.6843 4.83864 19.9991 4.87353 20.203 5.03898C20.3752 5.17869 20.4226 5.36741 20.4452 5.49986C20.4679 5.63232 20.4961 5.93405 20.4737 6.16982C20.2176 8.86081 19.1094 15.3911 18.5456 18.4051C18.307 19.6804 17.8373 20.108 17.3825 20.1499C16.3943 20.2408 15.6438 19.4968 14.6866 18.8693C13.1888 17.8875 12.3426 17.2762 10.8887 16.3181C9.20843 15.2109 10.2977 14.6023 11.2552 13.6078C11.5058 13.3475 15.8602 9.38681 15.9445 9.02752C15.9551 8.98258 15.9648 8.81508 15.8653 8.72664C15.7658 8.63819 15.619 8.66844 15.513 8.69249C15.3628 8.72659 12.9699 10.3081 8.33455 13.4372C7.65536 13.9035 7.04017 14.1308 6.48898 14.1189C5.88133 14.1057 4.71248 13.7753 3.84355 13.4928C2.77777 13.1464 1.93072 12.9632 2.00448 12.3749C2.0429 12.0684 2.46491 11.755 3.27053 11.4346Z" fill="url(#paint0_linear_12_148)"/>
</g>
<defs>
<linearGradient id="paint0_linear_12_148" x1="11.241" y1="4.841" x2="11.241" y2="20.0439" gradientUnits="userSpaceOnUse">
<stop stop-color="#2AABEE"/>
<stop offset="1" stop-color="#229ED9"/>
</linearGradient>
</defs>
</svg>
