<svg width="24" height="25" viewBox="0 0 24 25" fill="none" xmlns="http://www.w3.org/2000/svg">
<path fill-rule="evenodd" clip-rule="evenodd" d="M12 12.9038C12.4142 12.9038 12.75 13.2396 12.75 13.6538V21.5C12.75 21.9142 12.4142 22.25 12 22.25C11.5858 22.25 11.25 21.9142 11.25 21.5V13.6538C11.25 13.2396 11.5858 12.9038 12 12.9038Z" fill="#33836E"/>
<path fill-rule="evenodd" clip-rule="evenodd" d="M9 7.63452C8.30964 7.63452 7.75 8.19417 7.75 8.88452V11.6538C7.75 12.3441 8.30964 12.9038 9 12.9038H15C15.6904 12.9038 16.25 12.3441 16.25 11.6538V8.88452C16.25 8.19417 15.6904 7.63452 15 7.63452H9ZM6.25 8.88452C6.25 7.36574 7.48122 6.13452 9 6.13452H15C16.5188 6.13452 17.75 7.36574 17.75 8.88452V11.6538C17.75 13.1725 16.5188 14.4038 15 14.4038H9C7.48122 14.4038 6.25 13.1725 6.25 11.6538V8.88452Z" fill="#33836E"/>
<path fill-rule="evenodd" clip-rule="evenodd" d="M15.3334 2.75C15.7476 2.75 16.0834 3.08579 16.0834 3.5V6.88462C16.0834 7.29883 15.7476 7.63462 15.3334 7.63462C14.9192 7.63462 14.5834 7.29883 14.5834 6.88462V3.5C14.5834 3.08579 14.9192 2.75 15.3334 2.75Z" fill="#33836E"/>
<path fill-rule="evenodd" clip-rule="evenodd" d="M8.66663 2.75C9.08084 2.75 9.41663 3.08579 9.41663 3.5V6.88462C9.41663 7.29883 9.08084 7.63462 8.66663 7.63462C8.25241 7.63462 7.91663 7.29883 7.91663 6.88462V3.5C7.91663 3.08579 8.25241 2.75 8.66663 2.75Z" fill="#33836E"/>
</svg>
